<svg width="165" height="202" viewBox="0 0 165 202" fill="none" xmlns="http://www.w3.org/2000/svg">
<path d="M130.55 197.356C130.55 199.788 110.372 201.752 85.4844 201.752C60.5969 201.752 40.4189 199.778 40.4189 197.356C40.4189 194.923 60.5969 192.959 85.4844 192.959C110.372 192.959 130.55 194.934 130.55 197.356Z" fill="#D3E0D7"/>
<path fill-rule="evenodd" clip-rule="evenodd" d="M38.9873 81.4889C40.0852 80.8855 41.5591 80.6086 42.7559 79.9558C44.6353 78.9666 46.4552 77.5324 48.7105 76.7114C50.9657 75.8904 53.5375 75.9399 55.7334 76.6323C57.3753 76.9092 58.8195 77.473 60.2735 78.2149C61.7374 78.9468 63.1915 79.9063 64.8829 81.0834C66.3369 82.1121 67.8206 83.0814 69.1065 84.209C74.6258 89.1349 78.6912 95.0895 81.4015 102.083C81.6587 102.805 81.9653 103.576 82.1928 104.407C82.45 105.357 82.8159 106.385 83.0434 107.444C83.172 107.968 83.2907 108.482 83.4094 108.987C83.4984 109.491 83.5677 109.986 83.627 110.451C83.7655 111.46 83.6666 112.38 83.4588 113.062C83.2511 113.745 82.9346 114.19 82.5588 114.308C81.5696 113.013 81.3322 109.788 80.4024 106.771C79.6705 104.239 78.5428 101.301 77.1382 98.512C75.7337 95.7226 74.0324 93.1311 72.4894 91.1132C70.1055 88.0271 67.2469 85.2674 64.2894 82.933C61.2428 80.5492 57.9292 78.6501 54.4574 77.8291C51.9351 77.206 49.393 77.2653 47.0092 78.3435C44.4671 79.4315 41.9448 81.1427 38.9873 81.4889Z" fill="#1C663A"/>
<path d="M63.7065 91.8751C58.9685 99.3727 34.1708 81.4496 26.1489 89.5704C26.2379 89.244 32.2618 68.1358 45.7833 63.5858C59.4235 58.9962 74.6265 65.1486 62.8162 80.3516C62.8162 80.3417 68.4444 84.3873 63.7065 91.8751Z" fill="#278F51"/>
<path d="M63.706 91.8748C58.968 99.3725 34.1703 81.4493 26.1484 89.5701C39.7886 68.6697 62.8157 80.3514 62.8157 80.3514C62.8157 80.3514 68.444 84.3871 63.706 91.8748Z" fill="#32B768"/>
<path fill-rule="evenodd" clip-rule="evenodd" d="M45.6641 35.415C46.4554 35.6623 47.2565 36.1272 48.0479 36.6416C48.8293 37.1757 49.581 37.789 50.3427 38.2934C52.7067 39.9552 55.2488 41.8148 57.6623 43.9117C60.0857 45.9988 62.3607 48.3529 64.2499 50.8258C67.2668 54.1097 69.4033 57.2947 72.2125 62.1217C73.439 64.1989 74.6655 66.2563 75.6744 68.3434C79.9277 77.4138 82.4104 86.6523 83.7062 96.6723C83.8249 97.701 83.9634 98.8088 84.0426 99.9562C84.2799 102.597 84.5173 105.792 84.4778 108.285C84.4283 111.025 83.6765 113.072 82.905 113.28C82.0939 111.381 82.2423 106.87 81.8565 102.538C81.5499 98.8978 81.0455 94.5654 80.2245 90.3121C79.4332 86.0588 78.355 81.9045 77.2768 78.5513C76.4657 75.9795 75.5063 73.4276 74.4479 70.9547C73.4093 68.472 72.2323 66.0684 71.0057 63.7538C68.5032 59.0059 65.4962 54.7032 62.2617 50.6873C59.8977 47.7694 57.504 44.9998 54.8136 42.5467C51.9451 39.9354 48.8985 37.5516 45.6641 35.415Z" fill="#1C663A"/>
<path d="M65.9422 40.0247C65.6356 44.8122 62.6187 49.382 62.6187 49.382L59.5227 46.0288L55.3188 29.6289C57.4752 29.9652 59.2259 30.4895 60.6404 31.1522C65.0421 33.2294 66.1499 36.6815 65.9422 40.0247Z" fill="#278F51"/>
<path d="M59.5219 46.0287C59.5219 46.0287 62.0937 26.2756 50.4516 23.4566C38.8094 20.6276 25.0308 34.7426 25.0308 34.7426C25.0308 34.7426 44.2991 35.4943 59.5219 46.0287Z" fill="#32B768"/>
<path d="M65.9416 40.0244C64.0326 42.5665 62.6379 46.0285 62.6379 46.0285C60.5805 40.1728 60.6497 31.1519 60.6497 31.1519C65.0415 33.229 66.1493 36.6811 65.9416 40.0244Z" fill="#1C663A"/>
<path fill-rule="evenodd" clip-rule="evenodd" d="M79.5415 17.4031C80.9461 18.5604 81.8858 20.687 82.6969 22.4872C85.3972 28.2242 87.1182 35.6131 87.6524 42.3788C88.0381 44.7923 88.2261 47.0475 88.3151 49.461C88.3547 50.6677 88.3844 51.9141 88.3844 53.2395C88.3448 54.5649 88.3053 55.9695 88.2558 57.4928C88.1866 60.1239 88.3151 62.7451 88.236 65.2575C88.0085 70.6879 87.7909 75.96 87.5733 81.242C87.3359 86.5239 87.1183 91.8158 86.7523 97.3154C86.6732 98.443 86.5743 99.6498 86.4556 100.906C86.1786 103.784 85.9016 107.276 85.4071 109.966C84.8828 112.924 83.7849 115.021 82.9738 115.13C82.5287 112.944 83.4288 108.077 83.8244 103.31C84.5465 95.3075 85.0213 84.0709 85.4763 76.2567C85.7928 70.2625 86.1291 64.1695 86.3665 58.4028C86.8017 52.4581 86.5743 46.7112 86.0302 41.0533C85.6247 36.9385 85.2389 32.9127 84.3388 29.0353C83.3793 24.9007 81.9451 20.8848 79.5415 17.4031Z" fill="#1C663A"/>
<path d="M81.4401 30.7958C71.5191 33.8918 65.3172 36.3746 62.8444 42.4182C62.8444 42.4182 58.967 32.3389 62.8444 19.7868C66.7218 7.23462 78.0375 -0.826843 82.2215 12.8133C82.2215 12.8133 91.0545 9.71735 94.7737 15.1378C98.4928 20.5583 91.3711 27.69 81.4401 30.7958Z" fill="#278F51"/>
<path d="M81.441 30.7959C71.5199 33.8919 65.3181 36.3746 62.8452 42.4182C64.3982 19.7868 82.2224 12.8134 82.2224 12.8134C82.2224 12.8134 91.0554 9.71737 94.7745 15.1378C98.4937 20.5583 91.3719 27.69 81.441 30.7959Z" fill="#32B768"/>
<path fill-rule="evenodd" clip-rule="evenodd" d="M102.361 29.5498C102.262 31.1225 101.352 32.8634 100.818 34.4955C99.1563 39.6885 97.8012 45.9299 96.0207 51.4493C95.1701 55.5245 94.0919 58.9074 92.9148 63.9915C92.3906 66.1775 92.1137 68.3932 91.6488 70.4902C89.7496 79.5902 88.167 88.2056 86.7921 97.4639C86.6437 98.4135 86.4954 99.4323 86.3272 100.491C85.9315 102.924 85.6546 105.872 85.249 108.147C84.8336 110.649 83.9335 112.469 83.1224 112.608C82.4894 110.748 83.1125 106.485 83.6269 102.38C84.4577 95.4659 86.1393 85.9405 87.5043 79.3528C88.5231 74.2885 89.6606 69.1746 90.9069 64.3279C92.2027 59.3525 93.4885 54.5156 94.9524 49.7974C95.4965 48.0862 96.09 46.4146 96.6637 44.7528C97.2671 43.101 97.8704 41.4788 98.4342 39.8467C99.0673 38.1157 99.7003 36.3946 100.323 34.6636C101.016 32.9623 101.688 31.261 102.361 29.5498Z" fill="#1C663A"/>
<path d="M118.435 24.07C118.435 24.07 106.466 29.3223 98.9982 40.371C98.9982 40.371 93.4393 40.7369 95.7736 33.4767C98.108 26.2263 110.492 20.3706 118.435 24.07Z" fill="#32B768"/>
<path fill-rule="evenodd" clip-rule="evenodd" d="M132.886 40.4597C132.352 39.5892 131.343 39.342 130.393 39.2332C129.909 39.1738 129.414 39.1936 128.92 39.1936C128.425 39.1936 127.94 39.1936 127.475 39.2628C125.982 39.4013 124.468 39.797 122.955 40.252C121.452 40.7663 119.958 41.3895 118.514 42.1412C115.626 43.6546 112.925 45.5537 110.452 47.5023C108.82 49.0652 107.337 50.5291 105.853 52.1908C105.121 53.0316 104.369 53.902 103.568 54.8318C102.826 55.8111 102.025 56.8299 101.204 57.9872C100.541 59.006 99.8983 60.0446 99.2949 61.0733C98.7311 62.1317 98.1772 63.1802 97.6035 64.1792C92.8358 73.0418 90.0069 82.2013 87.9298 92.1421C87.7023 93.1609 87.4945 94.2588 87.2571 95.3963C86.7131 98.0175 86.3076 101.212 85.8427 103.695C85.3382 106.415 84.4183 108.403 83.6072 108.542C83.0137 106.514 83.7061 101.855 84.448 97.3845C85.0612 93.6258 85.9614 89.145 87.1286 84.7631C88.276 80.3713 89.7696 76.0983 91.1643 72.6561C93.3008 67.3741 95.9615 62.1811 99.1861 57.6509C100.828 55.3165 102.609 53.1404 104.488 51.0731C106.357 49.0058 108.415 47.1166 110.63 45.4746C113.845 43.0512 117.396 41.3202 121.056 40.1135C123.014 39.4903 125.042 39.0749 127.08 38.9166C128.099 38.8177 129.108 38.8375 130.146 38.8672C130.67 38.9166 131.204 39.0155 131.709 39.243C132.233 39.4607 132.718 39.8959 132.886 40.4597Z" fill="#1C663A"/>
<path d="M161.561 62.0922C161.561 62.0922 161.373 61.7361 160.997 61.1624C159.434 58.7588 154.637 52.5075 147.179 52.5866C137.95 52.6855 123.074 60.1238 119.018 55.0397C114.973 49.9555 116.417 44.8417 120.067 41.2313C120.067 41.2313 113.667 35.3064 122.589 29.6288C131.521 23.9511 160.107 33.5161 161.561 62.0922Z" fill="#278F51"/>
<path d="M160.987 61.1628C159.424 58.7592 154.627 52.5079 147.169 52.587C137.94 52.6859 123.063 60.1242 119.008 55.0401C114.962 49.9559 116.406 44.8421 120.056 41.2317C120.076 41.2317 147.554 25.9298 160.987 61.1628Z" fill="#32B768"/>
<path fill-rule="evenodd" clip-rule="evenodd" d="M139.335 86.7216C138.237 85.9798 137.397 84.6049 136.309 83.6652C134.597 82.1815 132.451 80.9649 130.186 80.0252C127.911 79.0756 125.507 78.4624 123.203 77.948C121.501 77.8095 119.948 77.7205 118.277 77.7304C116.605 77.7502 114.825 77.8788 112.747 78.314C110.957 78.6899 109.276 79.3823 107.663 80.0054C104.162 81.3605 100.977 83.1904 98.0488 85.3665C95.1408 87.5426 92.4998 90.1045 90.3731 93.151C90.1555 93.4676 89.9379 93.794 89.7104 94.1303C89.4928 94.4765 89.2752 94.8227 89.0576 95.1788C88.0388 96.8405 87.2673 99.0364 86.7628 100.748C86.1792 102.607 85.4868 104.081 84.6757 104.249C83.8251 102.726 84.5274 98.8979 86.0902 95.703C86.7232 94.3479 87.5343 92.9136 88.5234 91.519C89.5126 90.1342 90.66 88.7791 91.8964 87.5327C94.3594 85.0104 97.2081 82.9728 99.6315 81.4891C103.361 79.2141 107.525 77.4535 111.739 76.6424C116.031 75.8016 120.433 75.7126 124.548 76.7215C127.545 77.4534 130.255 78.7789 132.718 80.3417C135.339 82.0134 137.624 84.1895 139.335 86.7216Z" fill="#1C663A"/>
<path d="M149.168 98.9768C134.776 84.7431 114.073 104.506 106.823 95.3763C99.5823 86.2466 109.79 78.4127 109.79 78.4127C104.261 71.6074 112.639 60.2323 130.661 69.2434C148.693 78.2643 149.168 98.9768 149.168 98.9768Z" fill="#278F51"/>
<path d="M149.168 98.9768C134.776 84.7431 114.073 104.506 106.823 95.3763C99.5823 86.2466 109.79 78.4126 109.79 78.4126C109.79 78.4126 134.934 63.081 149.168 98.9768Z" fill="#32B768"/>
<path d="M114.251 112.123V178.83C114.251 189.483 105.606 198.128 94.9532 198.128H74.9826C64.3197 198.128 55.6846 189.483 55.6846 178.83V112.123C55.6846 111.173 56.4561 110.402 57.4057 110.402H112.53C113.48 110.402 114.251 111.173 114.251 112.123Z" fill="white"/>
<path opacity="0.36" d="M114.25 126.129H55.6836V130.927H114.25V126.129Z" fill="#AFE1C4"/>
<path opacity="0.36" d="M114.25 136.594H55.6836V141.392H114.25V136.594Z" fill="#AFE1C4"/>
<path opacity="0.36" d="M114.25 133.043H55.6836V134.477H114.25V133.043Z" fill="#AFE1C4"/>
</svg>