<svg width="200" height="248" viewBox="0 0 200 248" fill="none" xmlns="http://www.w3.org/2000/svg">
<path d="M165.097 217.219C165.097 219.652 136.551 221.616 101.346 221.616C66.1408 221.616 37.5947 219.641 37.5947 217.219C37.5947 214.786 66.1408 212.823 101.346 212.823C136.561 212.823 165.097 214.797 165.097 217.219Z" fill="#D3E0D7"/>
<path d="M169.975 138.814C169.975 138.814 162.665 129.695 154.435 133.453C146.216 137.212 143.703 149.487 143.703 149.487L131.972 145.511C131.962 145.511 152.606 109.111 169.975 138.814Z" fill="#278F51"/>
<path d="M152.438 146.184V205.819C152.438 210.775 148.936 214.899 144.267 215.869C143.585 216.007 142.882 216.086 142.16 216.086H65.6111C64.8891 216.086 64.1868 216.007 63.5043 215.869C58.8454 214.899 55.334 210.765 55.334 205.819V146.184C55.334 145.086 56.2242 144.196 57.3222 144.196H150.439C151.547 144.196 152.438 145.086 152.438 146.184Z" fill="white"/>
<path d="M57.3324 144.195C56.2345 144.195 55.3442 145.086 55.3442 146.184V176.629C58.371 189.122 65.0675 201.961 65.0675 201.961C84.7513 192.584 90.1322 172.969 89.7167 160.912C89.6871 159.923 89.6079 158.993 89.4991 158.122L102.239 169.567C102.239 169.567 104.326 154.314 100.657 144.423C101.29 145.283 102.022 146.085 102.823 146.807C109.519 152.801 111.864 161.931 111.864 161.931C111.864 161.931 123.407 151.723 127.254 144.364C127.284 144.304 127.314 144.245 127.343 144.186H57.3324V144.195ZM79.1627 149.428C78.3417 149.606 77.58 149.853 76.9074 150.11C76.8975 149.398 76.8283 148.706 76.6997 148.033C76.5711 147.361 76.3832 146.718 76.126 146.104L79.7067 149.319C79.5286 149.359 79.3506 149.398 79.1627 149.428Z" fill="#D3E0D7"/>
<path fill-rule="evenodd" clip-rule="evenodd" d="M71.1597 75.4009C71.7037 74.8866 72.584 75.0646 73.2764 75.0943C74.4139 75.1042 75.68 75.2427 76.9164 75.668C78.143 76.0834 79.33 76.756 80.2103 77.6759C81.7435 78.6947 82.6633 80.0597 83.7118 82.0776C84.1668 82.948 84.7009 83.7987 85.0076 84.6988C86.3033 88.6257 86.4616 92.5229 86.3132 96.5684C86.2935 96.9839 86.2539 97.4389 86.2045 97.8939C86.0858 98.9622 86.0264 100.248 85.7791 101.237C85.5022 102.315 84.6713 102.998 83.8898 102.929C83.2073 102.028 83.6327 100.317 83.7415 98.6061C83.9492 95.7475 84.0481 91.7415 83.692 89.051C83.4447 86.9837 82.9106 84.956 82.1688 83.1557C81.4071 81.2863 80.2598 79.7333 78.8552 78.4475C77.8463 77.5078 76.7681 76.6176 75.4921 76.0933C74.1469 75.5493 72.673 75.2921 71.1597 75.4009Z" fill="#1C663A"/>
<path fill-rule="evenodd" clip-rule="evenodd" d="M111.259 104.353C111.141 103.572 111.754 102.909 112.021 102.206C112.882 99.9513 113.277 97.152 113.683 94.7088C113.614 93.8087 113.584 92.9877 113.485 92.1272C113.386 91.2666 113.228 90.3467 112.812 89.3477C112.436 88.4773 111.813 87.7948 111.24 87.1815C110.003 85.8363 108.312 84.9856 106.67 84.9065C105.038 84.8076 103.475 85.6286 102.09 86.8848C101.803 87.1518 101.497 87.4387 101.18 87.7354C100.448 88.4476 99.7063 89.4763 99.0535 90.1885C98.3215 90.9699 97.3224 91.2765 96.6103 90.9303C96.3234 89.7928 97.5598 88.2399 98.7765 86.8056C99.7953 85.5989 101.18 84.1548 103.099 83.2448C104.049 82.7898 105.127 82.5227 106.175 82.5128C107.214 82.493 108.183 82.7007 108.994 82.9975C111.477 83.8976 113.525 85.955 114.395 88.2992C115.315 90.6732 115.473 93.146 115.077 95.421C114.781 97.0927 114.108 98.5566 113.505 99.9809C112.832 101.524 112.061 102.958 111.259 104.353Z" fill="#1C663A"/>
<path fill-rule="evenodd" clip-rule="evenodd" d="M116.867 100.753C116.719 100.209 117.193 99.9217 117.352 99.4964C117.846 98.1413 117.53 96.4993 117.628 95.1046C117.263 94.1254 117.243 93.2648 116.728 92.0976C116.501 91.5932 116.085 91.1975 115.809 90.7722C114.592 88.9324 113.088 87.3696 111.278 86.3013C111.09 86.1925 110.902 86.0738 110.695 85.9551C110.22 85.6781 109.587 85.5397 109.142 85.3319C108.667 85.0945 108.331 84.3923 108.341 83.601C108.904 82.7899 110.18 83.1361 111.249 83.5812C112.178 83.9274 113.187 84.5505 114.068 85.2825C114.948 86.0145 115.7 86.8552 116.263 87.5773C117.134 88.6851 117.915 89.9215 118.37 91.2569C118.835 92.6021 119.172 94.0067 119.092 95.3915C119.043 96.4103 118.687 97.35 118.37 98.2303C118.044 99.1601 117.52 100.031 116.867 100.753Z" fill="#1C663A"/>
<path fill-rule="evenodd" clip-rule="evenodd" d="M62.2866 138.528C61.703 138.538 61.4952 137.944 61.1292 137.628C60.0115 136.599 58.3992 135.54 57.6277 134.037C57.1826 133.621 56.8265 133.176 56.5298 132.662C56.2133 132.158 55.9165 131.594 55.5505 130.941C55.2043 130.387 54.7889 129.863 54.4823 129.309C53.2953 126.856 52.5337 124.353 52.1281 121.594C52.0984 121.307 52.0687 121 52.049 120.684C51.9995 119.952 51.8907 119.071 51.9797 118.379C52.1083 117.617 52.8007 117.093 53.5821 117.093C54.413 117.647 54.2547 118.784 54.3833 119.902C54.5712 121.772 55.0461 124.334 55.6 126.064C55.9857 127.4 56.5891 128.676 57.1034 129.922C57.6475 131.198 58.3695 132.336 59.0224 133.503C59.2696 133.918 59.4971 134.353 59.7049 134.789C59.9423 135.214 60.1796 135.629 60.4368 136.035C60.7336 136.441 61.0303 136.856 61.337 137.281C61.6436 137.687 61.9601 138.102 62.2866 138.528Z" fill="#1C663A"/>
<path fill-rule="evenodd" clip-rule="evenodd" d="M69.171 148.785C68.6566 148.202 68.7951 147.301 68.6468 146.56C68.2412 144.196 67.4994 141.377 67.7763 138.775C67.6675 137.845 67.6477 136.975 67.7367 136.055C67.7763 135.59 67.8158 135.115 67.8554 134.611C67.9148 134.106 67.9741 133.572 68.0532 132.989C68.1324 131.98 68.162 130.971 68.2906 130.001C69.0127 125.857 70.2392 122.019 72.0592 118.152C72.2571 117.756 72.4846 117.341 72.722 116.915C73.2561 115.926 73.8892 114.719 74.5222 113.869C75.2641 112.959 76.3027 112.622 76.9852 113.008C77.2424 114.156 76.1048 115.6 75.2838 117.192C73.8595 119.833 72.2472 123.681 71.4262 126.46C70.7437 128.577 70.3481 130.803 69.9227 132.91C69.5073 135.086 69.3886 137.242 69.2106 139.369C69.171 140.14 69.1018 140.912 69.0226 141.673C68.9732 142.435 68.9435 143.197 68.9336 143.948C68.9633 144.75 68.9831 145.551 69.0127 146.362C69.0622 147.163 69.1116 147.964 69.171 148.785Z" fill="#1C663A"/>
<path d="M72.7329 132.988L79.9832 140.07C79.9832 140.07 109.361 141.178 109.341 140.763C109.321 140.347 106.819 111.415 106.819 111.415L79.4194 117.538L72.7329 132.988Z" fill="#2D5000"/>
<path d="M125.612 125.788C125.612 125.788 135.286 126.747 138.313 127.4C138.313 127.4 130.944 133.76 127.363 134.522L125.612 125.788Z" fill="#278F51"/>
<path d="M131.597 109.783C130.776 116.361 128.472 120.901 125.613 124.027C118.511 131.791 107.947 130.881 107.947 130.881C107.947 130.881 100.449 115.342 109.886 109.783C113.338 107.755 117.176 107.211 120.648 107.33C126.671 107.548 131.597 109.783 131.597 109.783Z" fill="#32B768"/>
<path d="M125.613 124.027C118.511 131.791 107.947 130.881 107.947 130.881C107.947 130.881 100.449 115.342 109.886 109.783C113.338 107.755 117.176 107.211 120.648 107.33L108.728 120.862C108.728 120.862 115.771 122.306 117.037 125.085C117.047 125.085 121.745 122.662 125.613 124.027Z" fill="#1C663A"/>
<path d="M131.597 96.6673L105.158 122.434L99.3613 128.082C99.1931 127.983 99.0348 127.884 98.8667 127.776C96.562 126.312 94.5936 124.66 93.1891 122.771C89.8656 118.3 89.6479 112.484 95.4443 104.699C96.8884 102.76 98.8963 101.257 101.241 100.08C112.556 94.4022 131.597 96.6673 131.597 96.6673Z" fill="#278F51"/>
<path d="M93.1881 122.761C89.8646 118.29 89.6469 112.474 95.4433 104.689C96.8874 102.75 98.8954 101.247 101.24 100.07C101.24 100.07 102.713 112.79 93.1881 122.761Z" fill="#1C663A"/>
<path d="M105.156 122.434L99.3598 128.082C99.1916 127.983 99.0334 127.884 98.8652 127.775C100.903 122.691 105.156 122.434 105.156 122.434Z" fill="#1C663A"/>
<path d="M66.521 198.311C66.521 198.311 57.5693 181.139 55.6899 167.202C55.2448 163.879 55.1954 160.733 55.7592 158.053C58.7266 144.136 70.4182 140.713 75.7892 147.707C75.7892 147.707 76.818 147.054 78.361 146.46C79.0237 146.203 79.7952 145.956 80.6162 145.778C83.1385 145.234 86.185 145.323 88.5886 147.707C89.9833 149.091 91.0022 152.613 91.1604 157.262C91.5858 169.319 86.2048 188.934 66.521 198.311Z" fill="#278F51"/>
<path d="M66.5215 198.311C67.7678 183.474 70.0329 171.001 72.0013 162.158C74.0488 152.998 75.7897 147.716 75.7897 147.716C75.7897 147.716 76.8184 147.063 78.3615 146.47C79.0242 146.213 79.7957 145.965 80.6167 145.787C83.139 145.243 86.1855 145.332 88.5891 147.716C89.9838 149.101 91.0026 152.622 91.1609 157.271C91.5862 169.319 86.2053 188.934 66.5215 198.311Z" fill="#32B768"/>
<path d="M73.8904 160.407C73.3464 161.05 72.7035 161.624 72.0111 162.158C67.3819 165.659 59.8941 166.827 55.7002 167.212C55.2551 163.889 55.2056 160.743 55.7694 158.063C58.7369 144.146 70.4285 140.723 75.7995 147.717C75.7995 147.717 76.8281 147.064 78.3712 146.47C78.3712 146.47 79.6967 153.622 73.8904 160.407Z" fill="#1C663A"/>
<path d="M91.1706 157.271L80.6265 145.787C83.1488 145.243 86.1953 145.332 88.5989 147.716C89.9936 149.101 91.0124 152.622 91.1706 157.271Z" fill="#1C663A"/>
<path d="M100.349 98.8138C99.9336 99.5952 99.4687 100.307 98.9445 100.94L87.3122 98.4577L78.865 96.6574C78.865 96.6574 78.8254 94.8176 79.8343 92.1964C81.7236 87.3101 87.2826 79.674 103.584 76.0537C103.584 76.0636 104.662 90.7424 100.349 98.8138Z" fill="#278F51"/>
<path d="M100.349 98.8135C99.9338 99.5949 99.4689 100.307 98.9447 100.94L87.3124 98.4574C87.1838 97.4485 87.164 96.4692 87.2234 95.5296C88.0048 83.1555 103.594 76.0535 103.594 76.0535C103.594 76.0535 104.662 90.7422 100.349 98.8135Z" fill="#32B768"/>
<path d="M100.349 98.8135C99.9336 99.5949 99.4687 100.307 98.9445 100.95L87.3122 98.4673L78.865 96.667C78.865 96.667 78.8254 94.8273 79.8343 92.2061C79.8343 92.2061 84.78 93.3435 84.691 96.667C84.691 96.667 85.6999 96.1428 87.2133 95.5394C91.4764 93.8282 99.716 91.5235 100.349 98.8135Z" fill="#1C663A"/>
<path d="M54.661 127.667C54.5027 127.904 48.9043 136.509 38.3007 134.056C27.5488 131.564 28.4884 113.176 42.3462 96.667C42.3462 96.667 59.6561 97.6561 63.3753 110.841C67.1142 124.027 61.8322 130.317 54.661 127.667Z" fill="#278F51"/>
<path d="M54.661 127.667C54.5027 127.904 48.9043 136.509 38.3007 134.056C27.5488 131.564 28.4884 113.176 42.3462 96.667C54.9775 107.726 54.661 127.667 54.661 127.667Z" fill="#32B768"/>
<path d="M91.5863 122.375C84.9491 127.577 78.7571 134.412 76.8876 136.519C76.5217 136.935 76.3239 137.172 76.3239 137.172C58.8755 124.551 66.1951 94.7974 73.9895 92.6213C81.774 90.4353 84.1182 97.6066 84.1182 97.6066C110.429 84.8269 99.529 116.143 91.5863 122.375Z" fill="#278F51"/>
<path d="M91.5854 122.374C84.9483 127.577 78.7562 134.412 76.8868 136.519C67.1932 110.93 84.1075 97.5965 84.1075 97.5965C110.428 84.8267 99.5281 116.143 91.5854 122.374Z" fill="#32B768"/>
<path d="M78.8546 76.8546C78.8546 76.8546 79.7547 68.4964 74.9871 66.6072C70.2194 64.7179 62.1382 68.6744 59.7939 76.3106L78.8546 76.8546Z" fill="#32B768"/>
<path d="M49.3394 94.5698L78.8552 76.8544C78.8552 76.8544 74.3645 67.5071 64.6116 71.4636C54.8587 75.4201 50.556 88.635 49.3394 94.5698Z" fill="#278F51"/>
<path d="M84.6416 133.612C84.6416 133.612 97.7872 130.219 101.843 140.071C105.888 149.923 103.702 165.927 103.702 165.927L84.6416 133.612Z" fill="#32B768"/>
<path d="M73.8901 139.131L103.703 165.927C103.693 165.927 101.111 117.182 73.8901 139.131Z" fill="#278F51"/>
<path d="M72.0809 159.586C63.7227 166.856 43.5047 165.877 43.5047 165.877C38.5392 134.996 55.6118 128.943 61.7939 129.546C67.9661 130.149 69.6674 137.172 69.6674 137.172C81.2798 138.25 80.4391 152.316 72.0809 159.586Z" fill="#278F51"/>
<path d="M72.0815 159.586C63.7233 166.856 43.5054 165.877 43.5054 165.877C50.0436 141.297 69.6581 137.172 69.6581 137.172C81.2805 138.25 80.4397 152.316 72.0815 159.586Z" fill="#32B768"/>
<path d="M128.718 140.724C124.87 148.083 113.327 158.291 113.327 158.291C113.327 158.291 110.983 149.161 104.286 143.167C97.5799 137.163 96.571 125.798 104.286 122.751C112.002 119.695 116.987 125.491 116.987 125.491C131.824 118.844 132.566 133.365 128.718 140.724Z" fill="#32B768"/>
<path d="M113.337 158.29C113.337 158.29 110.993 149.161 104.297 143.166C97.5902 137.162 96.5813 125.797 104.297 122.751C112.012 119.694 116.997 125.491 116.997 125.491C116.997 125.491 125.345 135.431 113.337 158.29Z" fill="#278F51"/>
</svg>