<svg width="200" height="248" viewBox="0 0 200 248" fill="none" xmlns="http://www.w3.org/2000/svg">
<path d="M98.0536 222.282C130.386 222.282 156.597 220.66 156.597 218.658C156.597 216.656 130.386 215.034 98.0536 215.034C65.7213 215.034 39.5107 216.656 39.5107 218.658C39.5107 220.66 65.7213 222.282 98.0536 222.282Z" fill="#D3E0D7"/>
<path fill-rule="evenodd" clip-rule="evenodd" d="M100.832 65.5203C100.509 66.9951 99.6004 68.6228 99.1598 70.2325C97.703 75.3224 97.8828 81.4914 97.2713 87.0399C97.2443 91.0507 96.8756 94.441 96.6598 99.459C96.5789 101.626 96.6508 103.766 96.6058 105.835C96.381 114.774 96.39 123.191 96.9116 132.166C96.9656 133.083 97.0195 134.072 97.0735 135.097C97.1454 136.275 97.2713 137.57 97.3792 138.847C97.5051 140.124 97.631 141.383 97.694 142.489C97.8648 144.917 97.4872 146.815 96.8037 147.121C96.3181 146.32 95.9763 144.89 95.6976 143.155C95.4548 141.419 95.2479 139.396 95.0771 137.417C94.4026 130.736 94.2497 121.419 94.3756 114.945C94.4566 109.98 94.6185 104.945 94.9422 100.142C95.2749 95.2144 95.5896 90.4212 96.0393 85.7C96.372 82.2648 96.8307 78.9285 97.4332 75.6281C98.0807 72.112 99.1058 68.6318 100.832 65.5203Z" fill="#1C663A"/>
<path d="M129.529 65.6196C127.119 71.1411 126.93 69.9271 126.93 74.0188C126.93 78.1105 123.225 82.7238 120.069 85.5116C116.921 88.2903 117.848 104.243 114.691 106.357C111.544 108.47 106.157 101.456 99.1156 96.4558C92.0653 91.4468 95.7793 79.9451 90.9591 76.9774C86.139 74.0098 82.6139 69.3786 84.8351 58.4344C87.0653 47.4902 72.4071 41.3661 86.5077 31.7259C100.608 22.0856 108.396 37.2924 108.396 37.2924C108.891 31.7618 117.767 24.6935 124.169 26.4291C130.572 28.1647 131.391 34.3248 130.833 37.8499C130.276 41.3751 131.202 41.5549 132.686 46.1952C134.169 50.8265 131.948 60.098 129.529 65.6196Z" fill="#278F51"/>
<path d="M129.529 65.6191C127.119 71.1406 126.93 69.9266 126.93 74.0183C126.93 78.11 123.225 82.7233 120.069 85.5111C116.921 88.2898 117.847 104.243 114.691 106.356C102.308 83.3258 108.387 37.2829 108.387 37.2829C108.882 31.7523 117.758 24.684 124.16 26.4196C130.563 28.1552 131.382 34.3152 130.824 37.8404C130.266 41.3656 131.193 41.5454 132.677 46.1857C134.169 50.826 131.948 60.0975 129.529 65.6191Z" fill="#32B768"/>
<path d="M120.653 217.301H73.7825C73.7825 217.301 53.6027 204.945 57.1818 182.157C58.2879 175.116 59.8886 168.542 61.5793 162.822C64.6008 152.589 67.8832 145.071 69.0792 142.463C69.358 141.851 69.9695 141.465 70.644 141.465H123.8C124.475 141.465 125.077 141.851 125.365 142.463C126.561 145.071 129.852 152.589 132.865 162.822C134.556 168.542 136.156 175.116 137.262 182.157C140.841 204.945 120.653 217.301 120.653 217.301Z" fill="white"/>
<path d="M57.0005 192.5C61.9467 193.232 67.1716 206.543 72.5508 206.543C78.1633 206.543 78.1633 197 83.7757 197C89.3881 197 89.3881 206.543 95.0005 206.543C100.613 206.543 100.613 197 106.225 197C111.838 197 111.838 206.543 117.45 206.543C122.829 206.543 132.054 194.732 137 194C137 205 129.445 210.479 126 214C125.742 214.6 121.625 218 121 218L70.3858 218C69.7613 218 69.2034 217.621 68.9369 217.021C66.0005 212.5 58.0005 201.5 57.0005 192.5Z" fill="#AFE1C4"/>
</svg>