<svg width="200" height="248" viewBox="0 0 200 248" fill="none" xmlns="http://www.w3.org/2000/svg">
<path d="M99.4118 221.507C135.547 221.507 164.841 219.704 164.841 217.481C164.841 215.257 135.547 213.454 99.4118 213.454C63.2764 213.454 33.9829 215.257 33.9829 217.481C33.9829 219.704 63.2764 221.507 99.4118 221.507Z" fill="#D3E0D7"/>
<path d="M172.146 147.813C172.146 147.813 163.749 158.917 167.928 162.955C172.107 166.992 175.215 153.761 172.146 147.813Z" fill="#32B768"/>
<path d="M172.146 147.814C172.146 147.814 183.365 139.567 187.345 143.803C191.324 148.035 178.049 150.962 172.146 147.814Z" fill="#32B768"/>
<path d="M165.044 140.544C165.044 140.544 157.181 154.473 161.679 156.251C166.171 158.029 168.688 145.527 165.044 140.544Z" fill="#32B768"/>
<path d="M165.045 140.544C165.045 140.544 176.728 129.617 179.514 133.566C182.304 137.515 170.749 142.91 165.045 140.544Z" fill="#32B768"/>
<path d="M153.189 133.769C153.189 133.769 148.661 150.913 153.998 150.728C159.336 150.537 159.406 135.724 153.189 133.769Z" fill="#32B768"/>
<path d="M153.189 133.769C153.189 133.769 163.935 119.663 167.066 123.987C170.201 128.312 158.553 137.47 153.189 133.769Z" fill="#32B768"/>
<path d="M139.759 132.089C139.688 132.067 138.733 149.516 144.07 148.486C149.408 147.447 146.029 133.955 139.759 132.089Z" fill="#32B768"/>
<path d="M151.286 124.907C149.606 128.043 145.838 131.297 142.27 132.031C141.412 132.208 140.563 132.239 139.758 132.089C139.736 132.084 140.258 130.895 141.107 129.232C141.836 127.799 142.818 126.017 143.915 124.346C144.388 123.616 144.888 122.913 145.396 122.263C147.333 119.795 149.433 118.181 151.096 119.49C152.613 120.68 152.436 122.767 151.286 124.907Z" fill="#32B768"/>
<path d="M123.601 136.188C123.601 136.188 131.145 149.131 135.173 146.978C139.202 144.824 132.723 134.203 123.601 136.188Z" fill="#32B768"/>
<path fill-rule="evenodd" clip-rule="evenodd" d="M181.481 163.56C181.092 162.627 180.738 161.562 180.322 160.478C179.911 159.395 179.442 158.289 178.907 157.308C177.2 154.177 174.79 151.152 172.248 148.194C169.696 145.244 166.906 142.432 164.009 140.026C162.926 139.221 161.851 138.492 160.759 137.806C159.671 137.112 158.544 136.493 157.354 135.905C154.979 134.729 152.3 133.751 148.992 133.128C146.135 132.597 143.248 132.575 140.497 132.712C134.527 133.008 128.819 134.565 123.609 137.103C118.396 139.659 113.651 143.175 109.379 147.429C108.946 147.871 108.486 148.318 108.03 148.795C107.579 149.277 107.115 149.772 106.642 150.277C104.497 152.62 102.22 155.702 100.482 158.135C98.5628 160.792 96.9001 162.694 96.2368 162.645C96.8559 160.319 99.9248 155.548 103.378 151.351C104.824 149.582 106.483 147.69 108.358 145.855C110.233 144.019 112.298 142.224 114.487 140.597C116.671 138.969 118.971 137.497 121.279 136.303C123.583 135.1 125.869 134.127 127.987 133.42C134.461 131.204 141.589 130.475 148.183 131.602C151.557 132.177 154.82 133.203 157.827 134.693C160.834 136.179 163.567 138.103 165.999 140.274C169.559 143.449 172.402 147.062 175.078 150.697C176.506 152.647 177.842 154.668 178.96 156.808C180.088 158.944 180.981 161.208 181.481 163.56Z" fill="#1C663A"/>
<path d="M177.055 154.349C177.055 154.349 177.046 167.894 183.325 167.894C189.605 167.89 183.568 156.843 177.055 154.349Z" fill="#32B768"/>
<path d="M151.288 124.907C150.169 124.726 147.343 124.107 145.402 122.263C147.339 119.795 149.439 118.181 151.102 119.49C152.614 120.68 152.437 122.767 151.288 124.907Z" fill="#1C663A"/>
<path d="M143.915 124.341C143.915 124.341 146.551 125.699 145.33 128.896C144.685 130.581 142.775 130.081 141.107 129.232L143.915 124.341Z" fill="#1C663A"/>
<path fill-rule="evenodd" clip-rule="evenodd" d="M175.22 111.858C175.153 111.597 174.99 111.367 174.786 111.217C174.578 111.067 174.348 110.974 174.11 110.903C173.628 110.762 173.115 110.744 172.597 110.695C171.567 110.602 170.51 110.448 169.511 110.417C166.34 110.257 162.891 110.319 159.415 110.607C155.939 110.894 152.442 111.394 149.129 112.017C148.838 112.088 148.546 112.163 148.258 112.234C147.971 112.314 147.688 112.398 147.409 112.477C146.843 112.632 146.286 112.787 145.729 112.937C145.176 113.11 144.628 113.287 144.071 113.459C143.513 113.627 142.952 113.799 142.399 114.016C141.837 114.22 141.271 114.423 140.688 114.635C140.113 114.861 139.534 115.122 138.928 115.374C138.627 115.502 138.322 115.635 138.012 115.767C137.712 115.918 137.402 116.072 137.093 116.227C136.779 116.382 136.465 116.541 136.137 116.705C135.974 116.784 135.81 116.868 135.647 116.952C135.487 117.045 135.324 117.138 135.165 117.235C134.607 117.567 134.055 117.903 133.497 118.235C132.954 118.58 132.445 118.969 131.919 119.336C130.866 120.052 129.898 120.857 128.938 121.635C126.86 123.333 124.91 125.151 122.938 126.929C120.97 128.711 119.011 130.479 117.052 132.248C113.143 135.786 109.194 139.293 105.899 143.529C105.227 144.396 104.533 145.346 103.865 146.364C103.096 147.535 102.348 148.884 101.721 150.259C101.088 151.635 100.584 153.032 100.204 154.279C99.3591 156.994 98.8639 159.148 98.2536 159.409C97.9618 158.361 97.9618 156.508 98.4394 154.385C98.8948 152.258 99.8411 149.897 100.995 147.721C101.959 145.89 103.211 143.976 104.674 142.132C106.134 140.279 107.801 138.488 109.525 136.785C111.25 135.087 113.037 133.478 114.739 131.956C116.442 130.444 118.06 129.003 119.519 127.707C121.77 125.721 123.986 123.692 126.289 121.724C127.444 120.747 128.629 119.796 129.858 118.911C130.473 118.469 131.118 118.076 131.742 117.66C132.06 117.461 132.365 117.24 132.688 117.054C133.015 116.873 133.338 116.687 133.661 116.506C136.31 115.002 139.06 113.764 141.877 112.827C144.69 111.88 147.533 111.137 150.403 110.669C154.582 109.952 158.681 109.824 162.718 109.837C163.797 109.855 164.876 109.851 165.947 109.917L167.556 109.992L169.157 110.116C170.227 110.191 171.288 110.306 172.35 110.425L173.146 110.514C173.415 110.545 173.698 110.593 173.968 110.673C174.242 110.753 174.512 110.868 174.755 111.058C175.007 111.235 175.197 111.535 175.22 111.858Z" fill="#1C663A"/>
<path d="M123 117.753C122.686 122.214 120.643 127.87 120.59 128.007C118.777 126.424 117.632 122.369 117.53 118.792C117.481 117.107 117.667 115.524 118.118 114.356C118.658 112.968 119.573 112.168 120.931 112.459C121.895 112.667 122.474 113.392 122.77 114.418C122.77 114.418 122.77 114.418 122.77 114.423C123.04 115.343 123.089 116.501 123 117.753Z" fill="#32B768"/>
<path d="M120.59 128.007C120.59 128.007 135.682 124.894 136.023 129.935C136.363 134.976 123.23 132.124 120.59 128.007Z" fill="#32B768"/>
<path d="M130.733 119.46C128.805 116.139 128.031 112.645 128.045 109.713C128.053 107.746 128.42 106.034 129.031 104.796C129.836 103.16 131.069 102.351 132.475 102.881C136.539 104.416 130.733 119.46 130.733 119.46Z" fill="#32B768"/>
<path d="M130.734 119.46C130.734 119.46 141.277 131.665 144.54 128.799C147.804 125.938 140.551 119.11 130.734 119.46Z" fill="#32B768"/>
<path d="M138.513 115.086C138.513 115.086 151.005 102.594 146.282 98.7068C141.559 94.8243 137.221 111.376 138.513 115.086Z" fill="#32B768"/>
<path d="M138.513 115.086C138.513 115.086 156.09 116.859 154.888 122.856C153.689 128.856 139.857 118.779 138.513 115.086Z" fill="#32B768"/>
<path d="M150.7 111.447C150.7 111.447 162.188 101.422 158.522 98.1233C154.861 94.8244 150.125 104.893 150.7 111.447Z" fill="#32B768"/>
<path d="M150.699 111.447C150.699 111.447 165.142 116.325 163.019 120.773C160.892 125.222 152.667 117.722 150.699 111.447Z" fill="#32B768"/>
<path d="M159.955 110.319C159.955 110.319 176.52 99.9186 173.973 96.1776C171.425 92.4365 161.308 103.837 159.955 110.319Z" fill="#32B768"/>
<path d="M159.955 110.319C159.955 110.319 177.767 118.403 175.741 122.453C173.72 126.504 162.166 116.563 159.955 110.319Z" fill="#32B768"/>
<path d="M169.034 110.319C169.034 110.319 181.062 121.896 184.882 117.797C188.707 113.697 177.957 107.657 169.034 110.319Z" fill="#32B768"/>
<path d="M123 117.753C122.085 118.818 118.596 118.818 117.53 118.792C117.481 117.107 117.667 115.524 118.118 114.357C119.913 113.967 122.77 114.423 122.77 114.423C122.77 114.423 122.77 114.423 122.77 114.427C123.04 115.343 123.089 116.501 123 117.753Z" fill="#1C663A"/>
<path d="M130.372 106.968C130.239 108.232 128.908 109.21 128.05 109.718C128.059 107.75 128.426 106.039 129.036 104.801C129.032 104.796 130.571 105.088 130.372 106.968Z" fill="#1C663A"/>
<path fill-rule="evenodd" clip-rule="evenodd" d="M150.275 64.3073C149.231 64.3869 148.086 64.5992 146.98 65.0414C145.875 65.4748 144.813 66.1204 143.929 66.8589C142.532 68.0395 141.284 69.4767 140.091 71.0023C138.897 72.5279 137.672 74.0933 136.438 75.6676C133.975 78.8249 131.397 81.9602 129.08 85.0512C125.984 89.6325 123.99 93.9174 120.837 100.139C119.501 102.832 118.312 105.552 117.074 108.139C114.398 113.737 111.904 119.22 109.636 124.801C107.367 130.386 105.293 136.064 103.29 141.985C102.879 143.197 102.432 144.506 101.972 145.859C100.911 148.972 99.7614 152.762 98.7487 155.685C97.6388 158.895 96.3829 161.186 95.7417 161.288C95.8611 158.838 97.6653 153.407 99.3368 148.158C100.743 143.745 102.503 138.492 104.418 133.327C106.319 128.157 108.398 123.09 110.22 118.986C113.014 112.685 116.07 106.405 119.121 100.48C120.695 97.4374 122.212 94.4437 123.778 91.4632C124.569 89.9774 125.4 88.5048 126.32 87.0898C127.236 85.6747 128.213 84.3216 129.23 83.0126C130.711 81.1023 132.263 79.3158 133.794 77.5558C135.324 75.7958 136.84 74.0535 138.335 72.3024C139.922 70.4451 141.492 68.4994 143.42 66.9119C144.38 66.1248 145.424 65.3996 146.591 64.9264C147.75 64.44 149.023 64.2012 150.275 64.3073Z" fill="#1C663A"/>
<path d="M144.468 66.2136C144.468 66.2136 148.806 61.3184 154.82 60.8718C160.834 60.4251 161.568 64.4138 157.292 66.3949C153.016 68.3716 144.468 66.2136 144.468 66.2136Z" fill="#32B768"/>
<path d="M137.062 74.6506C137.062 74.6506 145.734 59.819 140.591 58.3509C135.448 56.8828 134.002 71.6436 137.062 74.6506Z" fill="#32B768"/>
<path d="M137.062 74.6505C137.062 74.6505 152.796 67.7521 153.663 73.032C154.525 78.312 139.698 78.0378 137.062 74.6505Z" fill="#32B768"/>
<path d="M129.049 84.6667C129.049 84.6667 128.192 82.7343 127.281 80.1695C126.79 78.7854 126.286 77.2155 125.892 75.6634C125.384 73.6602 125.061 71.6924 125.193 70.1889C125.348 68.4864 126.082 67.3853 127.794 67.5047C128.598 67.5622 129.231 67.8629 129.713 68.3449C133.166 71.7852 129.151 84.5252 129.049 84.6667Z" fill="#32B768"/>
<path d="M129.049 84.6665C129.204 84.5383 145.415 78.4093 146.255 84.9451C147.095 91.4853 129.049 84.6665 129.049 84.6665Z" fill="#32B768"/>
<path d="M123.88 93.2193C120.179 92.7992 117.088 90.1283 115.531 87.3335C113.851 84.3221 113.957 81.178 117.008 80.5678C119.356 80.0946 120.922 82.0182 121.961 84.499C123.522 88.2312 123.88 93.2193 123.88 93.2193Z" fill="#32B768"/>
<path d="M123.879 93.2232C123.879 93.2232 135.761 86.0683 138.18 91.556C140.604 97.0394 129.022 99.0072 123.879 93.2232Z" fill="#32B768"/>
<path d="M116.309 108.228C115.08 107.865 114.014 107.246 113.112 106.477C110.857 104.557 109.614 101.67 109.411 99.2995C109.221 97.1018 109.919 95.3462 111.52 95.2091C112.082 95.1605 112.573 95.3772 113.015 95.7884C114.589 97.2565 115.447 101.197 115.889 104.257C116.199 106.423 116.305 108.148 116.309 108.228Z" fill="#32B768"/>
<path d="M116.309 108.227C116.309 108.227 128.178 102.023 129.942 105.649C131.702 109.275 121.81 113.26 116.309 108.227Z" fill="#32B768"/>
<path d="M111.786 117.797C111.786 117.797 111.618 117.62 111.339 117.31C110.486 116.373 108.593 114.211 107.183 112.066C105.52 109.536 104.534 107.025 106.718 106.556C108.85 106.096 110.092 108.422 110.809 111.075C111.423 113.331 111.658 115.829 111.742 117.045C111.777 117.518 111.786 117.797 111.786 117.797Z" fill="#32B768"/>
<path d="M111.786 117.797C111.786 117.797 122.138 111.248 123.925 115.652C125.716 120.052 111.786 117.797 111.786 117.797Z" fill="#32B768"/>
<path d="M129.713 68.3449C129.713 68.3449 127.798 69.8042 125.194 70.1889C125.349 68.4864 126.083 67.3853 127.794 67.5047C128.599 67.5622 129.231 67.8629 129.713 68.3449Z" fill="#1C663A"/>
<path d="M127.28 80.1691C126.789 78.785 126.285 77.2151 125.892 75.663C125.892 75.663 127.506 75.2827 128.138 76.5386C128.616 77.476 127.744 79.3068 127.28 80.1691Z" fill="#1C663A"/>
<path d="M121.961 84.4989C121.961 84.4989 119.577 86.6834 115.531 87.3334C113.851 84.322 113.957 81.1779 117.008 80.5677C119.356 80.0989 120.926 82.0181 121.961 84.4989Z" fill="#1C663A"/>
<path d="M115.884 104.252L113.107 106.476C110.852 104.557 109.609 101.67 109.406 99.2994C110.724 97.7738 113.01 95.7883 113.01 95.7883C114.588 97.2565 115.446 101.197 115.884 104.252Z" fill="#1C663A"/>
<path d="M111.745 117.045L111.338 117.31C110.485 116.373 108.592 114.21 107.182 112.066C109.185 110.589 110.808 111.071 110.808 111.071C111.427 113.335 111.661 115.829 111.745 117.045Z" fill="#1C663A"/>
<path d="M81.1283 141.53C81.1283 141.53 83.6135 128.127 78.789 128.012C73.9646 127.897 81.1283 141.53 81.1283 141.53Z" fill="#32B768"/>
<path d="M71.8634 138.899C71.8634 138.899 69.3694 126.977 63.8551 128.012C58.3363 129.042 71.8634 138.899 71.8634 138.899Z" fill="#32B768"/>
<path d="M81.1273 141.53C81.1273 141.53 69.9395 144.444 71.2042 148.119C72.4689 151.793 80.5391 146.637 81.1273 141.53Z" fill="#32B768"/>
<path d="M33.4981 168.053C33.4981 168.053 22.0228 176.845 27.5415 180.864C33.0603 184.884 33.4981 168.053 33.4981 168.053Z" fill="#32B768"/>
<path d="M40.6178 155.49C40.6178 155.49 34.7541 152.863 29.7705 155.49C24.7824 158.117 22.903 167.456 40.6178 155.49Z" fill="#32B768"/>
<path d="M48.4133 146.456C48.4133 146.456 41.0992 138.58 35.8148 143.179C30.526 147.774 48.4133 146.456 48.4133 146.456Z" fill="#32B768"/>
<path d="M40.6174 155.49C40.6174 155.49 36.7481 169.72 41.6257 170.755C46.4988 171.79 40.6174 155.49 40.6174 155.49Z" fill="#32B768"/>
<path d="M48.4128 146.456C48.4128 146.456 42.1335 162.774 47.7628 163.145C53.392 163.517 51.013 149.622 48.4128 146.456Z" fill="#32B768"/>
<path d="M58.2439 139.615C58.2439 139.615 52.3581 129.042 44.5443 132.951C36.735 136.856 53.6405 140.703 58.2439 139.615Z" fill="#32B768"/>
<path d="M71.8637 138.899C71.8637 138.899 66.062 139.995 63.1169 144.187C60.1718 148.375 64.2136 149.821 66.4069 148.61C68.6003 147.398 71.8637 138.899 71.8637 138.899Z" fill="#32B768"/>
<path d="M58.2444 139.615C58.2444 139.615 53.6676 144.316 52.3808 149.702C51.0939 155.088 53.2254 157.148 55.3126 157.321C57.4042 157.493 61.2249 145.978 58.2444 139.615Z" fill="#32B768"/>
<path fill-rule="evenodd" clip-rule="evenodd" d="M30.8936 175.819C31.097 174.103 31.9637 172.086 32.6668 170.304C33.7458 167.452 35.0459 164.396 36.6334 161.416C38.2121 158.435 40.0959 155.548 42.1787 153.018C43.5362 151.104 44.9557 149.445 46.5609 147.765C48.1794 146.093 49.9394 144.356 52.2742 142.516C54.2818 140.946 56.4619 139.5 58.8498 138.731C60.1278 138.293 61.4456 138.019 62.7633 137.842C64.0811 137.669 65.4033 137.594 66.7122 137.625C69.3345 137.669 71.9037 138.041 74.4287 138.558C75.6934 138.828 76.9316 139.111 78.1963 139.456C79.4566 139.81 80.7523 140.256 81.9551 140.99C83.1756 141.72 84.1838 142.746 85.0196 143.825C85.8597 144.917 86.5407 146.067 87.2129 147.225C87.7612 148.181 88.3007 149.238 88.8225 150.347C90.0298 152.899 91.2547 156.087 91.8516 158.679C92.5326 161.526 92.3204 163.782 91.7942 164.1C91.3298 163.167 90.9142 161.54 90.3658 159.616C89.8086 157.697 89.1144 155.481 88.2255 153.385C87.4871 151.621 86.5584 149.737 85.4662 147.845C84.3651 145.956 83.1579 144.033 81.4731 142.83C79.7883 141.627 77.5861 141.11 75.4768 140.592C73.3719 140.088 71.3554 139.721 69.5291 139.509C66.7343 139.195 63.891 139.199 61.1935 139.761C59.8448 140.04 58.5491 140.482 57.3154 141.035C56.0816 141.596 54.9186 142.304 53.8087 143.078C51.5357 144.674 49.4972 146.624 47.5515 148.592C45.6146 150.573 43.8237 152.656 42.1477 154.809C39.7156 157.953 37.509 161.137 35.7136 164.538C33.7723 168.164 32.1936 171.94 30.8936 175.819Z" fill="#1C663A"/>
<path d="M26.285 102.877C26.285 102.877 18.3872 103.673 14.2216 107.591C10.056 111.509 12.2228 113.424 16.8041 112.34C21.3897 111.252 25.9356 104.827 26.285 102.877Z" fill="#32B768"/>
<path d="M36.4861 101.206C36.4861 101.206 31.016 89.0937 26.2844 91.2605C21.5528 93.4229 29.5037 101.4 36.4861 101.206Z" fill="#32B768"/>
<path d="M49.2933 103.788C49.2933 103.788 49.6383 88.6735 44.1372 89.5933C38.6362 90.5043 43.2838 101.528 49.2933 103.788Z" fill="#32B768"/>
<path d="M60.0127 108.086C60.0127 108.086 64.1385 89.8409 57.9697 89.5491C51.8054 89.2572 56.3866 105.336 60.0127 108.086Z" fill="#32B768"/>
<path d="M36.4865 101.205C36.4865 101.205 29.305 106.021 28.0536 112.641C26.8021 119.256 30.7201 119.093 32.9709 117.341C35.2217 115.586 37.0038 104.486 36.4865 101.205Z" fill="#32B768"/>
<path d="M49.2933 103.788C49.2933 103.788 44.0664 106.756 41.6874 110.258C39.3083 113.756 39.4852 116.422 41.6874 117.09C43.8851 117.753 49.6205 109.931 49.2933 103.788Z" fill="#32B768"/>
<path d="M60.0125 108.086C60.0125 108.086 53.2202 111.421 50.3857 114.419C47.5512 117.417 45.2207 122.67 50.3857 121.751C55.5507 120.835 60.0125 108.086 60.0125 108.086Z" fill="#32B768"/>
<path d="M73.9145 105.822C72.9726 109.103 71.0313 112.889 69.4747 114.971C69.4747 114.971 68.1216 108.993 68.6257 104.509V104.487C68.7495 103.394 68.9839 102.395 69.3775 101.59C69.8948 100.529 70.682 99.8082 71.8538 99.6888C73.574 99.5075 74.3302 100.436 74.4628 101.94C74.5557 103.005 74.3346 104.367 73.9145 105.822Z" fill="#32B768"/>
<path d="M72.6012 118.372C72.6012 118.372 67.6529 115.688 62.2536 119.088C56.8542 122.489 57.8536 126.287 62.2536 125.487C66.6491 124.687 72.6012 118.372 72.6012 118.372Z" fill="#32B768"/>
<path d="M85.2 113.844C85.1426 114.153 85.0453 114.494 84.9126 114.856C84.5367 115.896 83.8778 117.125 83.1128 118.376C80.9504 121.91 77.9302 125.598 77.9302 125.598C77.9302 125.598 78.2486 121.1 79.4691 117.284C80.1368 115.188 81.0787 113.295 82.392 112.464C82.706 112.265 83.0377 112.128 83.3958 112.062C83.5727 112.031 83.754 112.013 83.9398 112.018C85.0851 112.035 85.399 112.752 85.2 113.844Z" fill="#32B768"/>
<path fill-rule="evenodd" clip-rule="evenodd" d="M19.873 106.18C21.3367 104.867 23.6716 103.916 25.7102 103.164C28.9515 101.94 32.6926 101.104 36.5531 101.051C40.4179 100.967 44.3226 101.807 47.8337 103.032C50.4074 103.757 52.7201 104.628 55.1832 105.57C57.633 106.534 60.2818 107.582 63.165 109.364C65.6414 110.899 67.9762 112.628 69.9838 114.565C74.3086 118.792 77.6826 123.616 80.7692 128.543C83.847 133.482 86.7125 138.612 89.0164 144.241C89.4984 145.391 89.9494 146.655 90.3961 147.973C91.4175 151.007 92.4081 154.761 92.7353 157.777C92.7795 158.188 92.8193 158.591 92.8503 158.975C92.8812 159.36 92.868 159.736 92.868 160.09C92.8503 160.797 92.8459 161.43 92.7442 161.973C92.5673 163.052 92.3196 163.738 92.0322 163.879C91.8553 163.313 91.7182 162.557 91.6121 161.659C91.5414 161.213 91.4618 160.726 91.391 160.218C91.3601 159.961 91.3247 159.696 91.2893 159.426C91.2451 159.157 91.2009 158.882 91.1522 158.599C90.825 156.349 90.2943 153.753 89.5514 151.263C88.3486 147.062 86.3145 142.216 83.9133 137.595C82.7105 135.282 81.4193 133.022 80.1413 130.895C78.8633 128.764 77.5986 126.769 76.4091 125.014C72.7741 119.628 68.4184 114.578 63.2756 111.076L62.285 110.417L61.2635 109.811C60.5914 109.4 59.8838 109.046 59.1763 108.696C57.7524 108.007 56.2887 107.401 54.8073 106.813C51.8357 105.65 48.8994 104.491 45.9455 103.576C43.7875 102.908 41.6428 102.364 39.476 102.055C37.3137 101.763 35.1292 101.692 32.9712 101.891C28.3546 102.329 23.8573 103.797 19.873 106.18Z" fill="#1C663A"/>
<path d="M73.9153 105.822C71.4876 105.548 68.6221 104.509 68.6221 104.509V104.487C68.7459 103.395 68.9803 102.395 69.3738 101.59L74.4592 101.935C74.5565 103.005 74.3354 104.367 73.9153 105.822Z" fill="#1C663A"/>
<path d="M84.9128 114.856C84.5369 115.896 83.878 117.125 83.113 118.376C80.7737 118.054 79.4692 117.284 79.4692 117.284C80.137 115.188 81.0789 113.295 82.3922 112.464C83.5508 113.45 84.9128 114.856 84.9128 114.856Z" fill="#1C663A"/>
<path d="M85.1997 113.844C83.851 112.888 83.3955 112.057 83.3955 112.057C83.5724 112.026 83.7537 112.008 83.9394 112.013C85.0847 112.035 85.3987 112.751 85.1997 113.844Z" fill="#1C663A"/>
<path fill-rule="evenodd" clip-rule="evenodd" d="M59.9141 56.9583C60.7985 57.4535 61.6564 58.2451 62.4169 59.1516C63.1731 60.0625 63.8497 61.0796 64.4732 62.0304C68.2629 68.1991 72.5037 75.5972 75.546 82.7344C76.143 83.9859 76.7046 85.2019 77.253 86.418C77.5227 87.0283 77.7969 87.6385 78.071 88.2487C78.3231 88.8723 78.5752 89.5002 78.8361 90.137C79.3446 91.4149 79.8708 92.7327 80.428 94.1389C80.9542 95.5584 81.507 97.0619 82.1128 98.6936C82.6567 100.095 83.1608 101.506 83.6649 102.895C84.1646 104.288 84.6909 105.654 85.1242 107.025C85.5841 108.511 86.0396 109.988 86.4951 111.456L86.8356 112.557L87.1451 113.662C87.3485 114.401 87.5519 115.135 87.7554 115.869C88.6044 118.796 89.2721 121.75 89.9973 124.695C90.3378 126.172 90.6297 127.663 90.9525 129.148C91.1073 129.891 91.2665 130.639 91.4257 131.382C91.5627 132.133 91.6954 132.885 91.8325 133.637C92.0978 135.145 92.3897 136.657 92.6373 138.183C92.8672 139.713 93.0972 141.256 93.3271 142.808C93.535 144.077 93.6721 145.461 93.8268 146.89C94.2292 150.171 94.6095 154.129 94.7908 157.228C94.897 160.638 94.5299 163.225 93.9639 163.539C93.5836 162.371 93.3404 160.368 93.1458 157.971C93.0618 156.773 92.9026 155.482 92.7965 154.146C92.6638 152.811 92.5754 151.431 92.4074 150.074C91.859 145.501 91.178 140.044 90.1831 134.672C89.2677 129.285 88.056 124.001 87.0169 119.672C85.3498 113.048 83.32 106.423 81.193 100.149C79.0041 93.7144 76.457 87.5899 73.848 81.6024C72.8574 79.44 71.9686 77.2643 70.9559 75.1771C69.9698 73.0767 69.0147 70.9806 67.9268 68.9597C66.7904 66.7885 65.707 64.5907 64.4599 62.5212C63.2041 60.4649 61.7669 58.5016 59.9141 56.9583Z" fill="#1C663A"/>
<path d="M64.9104 62.5834C65.1271 62.6055 62.5446 48.7203 58.012 50.3962C53.4838 52.0678 58.8389 62.013 64.9104 62.5834Z" fill="#32B768"/>
<path d="M69.2702 70.3883C69.2702 70.3883 66.6612 56.8877 72.7283 56.8125C78.7953 56.7418 69.2702 70.3883 69.2702 70.3883Z" fill="#32B768"/>
<path d="M82.7362 71.507C81.1399 75.3542 77.6155 79.4579 74.0425 80.0372C74.0425 80.0372 74.1619 71.3876 76.8461 66.9833C77.8189 65.3869 79.1278 64.3477 80.8878 64.4804C84.0408 64.7147 84.1867 68.0048 82.7362 71.507Z" fill="#32B768"/>
<path d="M69.271 70.3882C69.271 70.3882 60.5286 62.8044 56.6902 67.4785C52.8563 72.1482 65.1143 74.0629 69.271 70.3882Z" fill="#32B768"/>
<path d="M74.0427 80.0373C74.0427 80.0373 66.6578 76.6102 61.3602 78.7018C56.0626 80.7934 55.4347 85.3968 61.9218 85.326C68.4045 85.2597 74.0427 80.0373 74.0427 80.0373Z" fill="#32B768"/>
<path d="M86.8809 84.99C86.0761 86.3653 84.9794 87.8688 83.5511 89.3856C82.7109 90.2744 81.7601 91.1676 80.6812 92.0432C80.3141 92.3439 79.9294 92.6446 79.5314 92.9365C79.5314 92.9365 79.4032 92.0521 79.3545 90.752C79.2661 88.5011 79.4032 84.99 80.8182 82.6065C81.2914 81.8106 81.8442 81.134 82.4367 80.5768C84.6389 78.4896 87.3585 78.0076 88.349 78.777C89.0521 79.3209 88.7293 81.8327 86.8809 84.99Z" fill="#32B768"/>
<path d="M80.1357 94.5106C80.1357 94.5106 76.4256 90.2787 70.4956 89.9294C64.5701 89.5801 62.8278 92.1846 63.7343 94.5106C64.6408 96.8322 78.4067 96.5802 80.1357 94.5106Z" fill="#32B768"/>
<path d="M83.6203 104.416C83.6203 104.416 80.0119 100.383 74.4843 99.6668C68.9567 98.946 66.0338 100.525 65.9099 102.877C65.7861 105.23 80.6796 106.464 83.6203 104.416Z" fill="#32B768"/>
<path d="M87.2683 116.869C87.2683 116.869 76.2794 106.689 73.1398 110.457C70.0001 114.224 81.2764 120.079 87.2683 116.869Z" fill="#32B768"/>
<path d="M89.7893 127.641C89.7893 127.641 85.071 121.64 82.4575 123.334C79.8441 125.023 84.6951 130.042 89.7893 127.641Z" fill="#32B768"/>
<path d="M92.3724 97.2169C91.5896 98.318 90.6389 99.4279 89.5599 100.458C87.8397 102.108 85.7967 103.549 83.6211 104.416C83.652 104.319 84.5542 101.599 85.925 98.5435C85.925 98.5435 85.925 98.5435 85.925 98.5391C86.8359 96.5094 87.9547 94.3293 89.1664 92.6666C90.4311 90.9287 91.7975 89.7525 93.1329 89.9028C95.6756 90.1814 94.9106 93.6483 92.3724 97.2169Z" fill="#32B768"/>
<path d="M93.375 112.694L93.3661 112.703C92.1368 113.808 90.7394 114.865 89.3111 115.749C88.6345 116.169 87.9447 116.55 87.2637 116.873C87.2637 116.873 87.3786 116.196 87.6395 115.166C88.0906 113.361 88.9883 110.469 90.4874 108.232C91.7078 106.41 93.3219 105.026 95.4224 105.004C99.6631 104.96 97.4079 109.072 93.375 112.694Z" fill="#32B768"/>
<path d="M89.7905 127.64C89.7905 127.64 90.0337 117.837 93.6068 118.54C97.1842 119.243 93.2972 125.836 89.7905 127.64Z" fill="#32B768"/>
<path d="M93.3755 112.694L93.3667 112.703C92.1374 113.809 90.74 114.865 89.3117 115.75C88.697 115.573 88.1398 115.374 87.6401 115.171C88.0912 113.366 88.9889 110.474 90.4879 108.237C91.9561 110.09 93.3755 112.694 93.3755 112.694Z" fill="#1C663A"/>
<path d="M83.5496 89.3855C82.7094 90.2743 81.7586 91.1676 80.6796 92.0431C80.2949 92.1625 80.0429 92.2333 80.0429 92.2333L79.353 90.7519C79.353 90.7519 79.6758 88.5806 83.5496 89.3855Z" fill="#1C663A"/>
<path d="M92.3849 97.2168C91.6022 98.3179 90.6514 99.4279 89.5724 100.458C87.4941 99.7197 85.9375 98.539 85.9375 98.539C85.9375 98.539 85.9375 98.539 85.9375 98.5346C86.8484 96.5049 87.9672 94.3248 89.1789 92.6621C90.6293 93.9799 92.3849 97.2168 92.3849 97.2168Z" fill="#1C663A"/>
<path d="M86.8792 84.99C83.4964 83.2256 82.5014 80.7449 82.4351 80.5768C84.6372 78.4896 87.3568 78.0076 88.3473 78.777C89.0505 79.3209 88.7277 81.8327 86.8792 84.99Z" fill="#1C663A"/>
<path d="M82.7365 71.507C76.6208 70.4634 76.8463 66.9833 76.8463 66.9833C77.8191 65.3869 79.1281 64.3477 80.888 64.4804C84.041 64.7147 84.1869 68.0048 82.7365 71.507Z" fill="#1C663A"/>
<path d="M84.4606 50.2548C84.4606 50.2548 80.9849 32.3676 76.3329 34.5875C71.6809 36.8118 76.0897 48.2561 84.4606 50.2548Z" fill="#32B768"/>
<path d="M89.0343 60.5711C89.0343 60.5711 87.2301 41.4634 94.7388 43.2632C102.252 45.0585 89.0343 60.5711 89.0343 60.5711Z" fill="#32B768"/>
<path d="M89.0333 60.5712C89.0333 60.5712 81.193 52.1737 76.2579 54.995C71.3229 57.8118 79.4418 63.4279 89.0333 60.5712Z" fill="#32B768"/>
<path d="M104.108 60.8718C102.295 65.1347 97.1698 70.1935 91.8633 70.3881C91.8633 70.3881 95.905 53.885 102.454 55.0922C103.122 55.216 103.639 55.4725 104.011 55.8307C105.09 56.8699 105.001 58.7758 104.108 60.8718Z" fill="#32B768"/>
<path d="M93.9109 87.4351C93.9109 87.4351 79.778 83.2784 81.5955 76.349C83.4085 69.4197 93.3316 78.4982 93.9109 87.4351Z" fill="#32B768"/>
<path d="M94.7024 101.206C94.7024 101.206 88.4806 88.3463 81.4318 89.5491C74.3831 90.7475 85.5399 100.87 94.7024 101.206Z" fill="#32B768"/>
<path d="M95.4722 115.843C95.4722 115.843 87.6407 102.652 82.8074 105.822C77.9697 108.993 85.8763 116.745 95.4722 115.843Z" fill="#32B768"/>
<path d="M91.8588 70.3882C91.8588 70.3882 82.4265 57.803 77.9293 63.6003C73.4365 69.3976 82.9793 72.3825 91.8588 70.3882Z" fill="#32B768"/>
<path d="M102.662 82.6948C100.079 85.2685 96.5683 87.3955 93.9106 87.4353C93.9106 87.4353 95.622 79.0466 99.226 75.3807L99.3321 75.2746C100.376 74.2487 101.578 73.6208 102.94 73.7092C103.272 73.7269 103.617 73.7932 103.966 73.9038C105.041 74.2398 105.687 74.8059 105.978 75.5134C106.743 77.3751 105.125 80.2406 102.662 82.6948Z" fill="#32B768"/>
<path d="M104.056 95.1607L104.047 95.1695C103.459 95.7621 102.778 96.3679 102.022 96.9649C100.54 98.1367 98.7803 99.2776 96.8965 100.219C96.1801 100.578 95.446 100.909 94.7031 101.201C94.7031 101.201 95.3178 99.2997 96.4454 97.0577C96.4498 97.0489 96.4543 97.0445 96.4543 97.0356C97.803 94.3514 99.8769 91.1808 102.49 90.1947C103.056 89.978 103.649 89.8674 104.264 89.8851C107.496 89.978 106.758 92.4322 104.056 95.1607Z" fill="#32B768"/>
<path d="M106.717 106.56C106.686 107.117 106.545 107.741 106.306 108.395C105.506 110.584 103.609 113.105 101.101 114.604C100.389 115.029 99.6289 115.373 98.8285 115.603C97.7716 115.909 96.644 116.01 95.4766 115.847C95.4766 115.847 97.0287 112.91 99.023 109.996C99.7571 108.922 100.549 107.852 101.345 106.927C101.906 106.277 102.468 105.707 103.007 105.26C104.038 104.411 105.006 104.013 105.78 104.42C106.483 104.787 106.771 105.57 106.717 106.56Z" fill="#32B768"/>
<path fill-rule="evenodd" clip-rule="evenodd" d="M79.5874 42.6089C81.0732 44.2229 82.3821 46.6949 83.5894 48.8219C84.5578 50.5111 85.5041 52.3065 86.4283 54.1681C87.326 56.0431 88.2237 57.98 88.9931 59.9876C89.7803 61.9908 90.4922 64.0382 91.0759 66.1121C91.6817 68.1772 92.1505 70.2645 92.5087 72.3207C93.8618 78.1622 94.0033 83.3007 94.5605 90.7386C94.7993 93.9534 95.1575 97.124 95.3697 100.193C96.2807 113.494 96.8821 126.08 96.4443 139.567C96.3824 140.947 96.3382 142.437 96.2365 143.976C96.1082 145.745 96.033 147.699 95.8562 149.618C95.7766 150.578 95.697 151.533 95.6174 152.453C95.5201 153.373 95.4095 154.261 95.3034 155.088C95.0823 156.906 94.7197 158.48 94.3527 159.625C93.99 160.771 93.6186 161.492 93.3135 161.607C93.2427 160.956 93.2427 160.09 93.2958 159.064C93.3489 158.042 93.4682 156.862 93.5611 155.575C93.7955 153.006 94.0696 150.025 94.2598 147.093C94.5826 142.158 94.7639 136.255 94.7816 130.382C94.7993 124.514 94.6489 118.682 94.4632 113.897C94.1758 106.552 93.6849 99.1095 93.2693 91.9768C93.0437 88.3197 92.8492 84.7025 92.5529 81.1604C92.261 77.6139 91.779 74.1426 91.0803 70.7288C90.0765 65.7539 88.719 60.9958 86.8705 56.4499C84.8762 51.6034 82.4308 46.9823 79.5874 42.6089Z" fill="#1C663A"/>
<path d="M101.098 114.6C100.386 115.024 99.6251 115.369 98.8247 115.599L99.0193 109.992C99.0193 109.992 100.762 112.451 101.098 114.6Z" fill="#1C663A"/>
<path d="M106.718 106.561C106.687 107.118 106.545 107.741 106.306 108.396C102.861 109.143 101.345 106.923 101.345 106.923C101.906 106.273 102.468 105.703 103.007 105.256L106.718 106.561Z" fill="#1C663A"/>
<path d="M104.055 95.1606L104.046 95.1694L102.021 96.9648C100.539 98.1366 98.7792 99.2775 96.8954 100.219C96.5018 98.7778 96.4443 97.1284 96.4443 97.0576C96.4488 97.0488 96.4532 97.0444 96.4532 97.0355C97.8019 94.3513 99.8759 91.1807 102.489 90.1946C103.612 91.9413 104.041 95.0721 104.055 95.1606Z" fill="#1C663A"/>
<path d="M102.662 82.6948C99.5224 79.6436 99.2261 75.3807 99.2261 75.3807L99.3322 75.2746C100.376 74.2487 101.579 73.6208 102.941 73.7092L105.979 75.5134C106.744 77.3751 105.125 80.2406 102.662 82.6948Z" fill="#1C663A"/>
<path d="M104.107 60.8717C103.068 58.4396 103.979 55.9146 104.01 55.8306C105.089 56.8698 105.001 58.7757 104.107 60.8717Z" fill="#1C663A"/>
<path fill-rule="evenodd" clip-rule="evenodd" d="M129.478 42.2678C128.594 43.0373 127.763 44.0234 127.073 45.1554C126.374 46.2831 125.79 47.5212 125.282 48.6842C122.067 56.1133 118.096 64.723 114.7 72.6474C113.63 75.5482 112.661 78.2369 111.742 81.1466C110.817 84.0519 109.982 87.2004 109.079 90.9724C108.301 94.2314 107.66 97.4817 106.922 100.595C103.751 114.078 100.523 126.734 98.5019 140.499C98.4002 141.203 98.2985 141.937 98.1924 142.688C98.0818 143.44 97.9801 144.214 97.8828 145.001C97.3964 148.623 97.0957 153.005 96.8436 156.428C96.5562 160.182 96.0344 163.017 95.4418 163.339C95.1456 162.013 95.0527 159.744 95.1279 157.042C95.1986 154.34 95.4418 151.205 95.7337 148.141C96.2245 142.98 97.1311 136.847 98.2985 130.82C99.4615 124.788 100.828 118.853 101.995 113.998C103.791 106.547 105.639 99.0117 107.461 91.8126C108.398 88.1202 109.318 84.4498 110.468 80.868C111.622 77.2905 112.971 73.8236 114.443 70.454C116.601 65.5411 119.011 60.9643 121.271 56.3609C122.478 53.9023 123.677 51.4524 124.831 48.9894C125.415 47.7644 125.963 46.5042 126.679 45.319C127.387 44.1384 128.293 43.0196 129.478 42.2678Z" fill="#1C663A"/>
<path d="M126.086 47.0793C126.086 47.0793 128.474 28.7322 135.97 30.3551C143.461 31.9824 126.086 47.0793 126.086 47.0793Z" fill="#32B768"/>
<path d="M120.859 58.4083C120.859 58.4083 126.422 34.6883 120.859 34.507C115.296 34.3257 117.211 55.3172 120.859 58.4083Z" fill="#32B768"/>
<path d="M115.628 69.7909C115.628 69.7909 112.338 51.8329 106.169 53.6459C100.001 55.459 107.111 69.5079 115.628 69.7909Z" fill="#32B768"/>
<path d="M109.53 87.4348C109.53 87.4348 108.73 66.9164 101.487 68.4509C94.2433 69.9853 102.769 86.201 109.53 87.4348Z" fill="#32B768"/>
<path d="M104.365 108.227C104.365 108.227 106.253 88.5183 99.4964 89.2081C92.7394 89.8935 97.4976 107.922 104.365 108.227Z" fill="#32B768"/>
<path d="M101.672 119.437C101.672 119.437 100.147 106.852 95.4727 107.321C90.7986 107.785 94.46 117.611 101.672 119.437Z" fill="#32B768"/>
<path d="M120.86 58.4084C120.86 58.4084 132.799 46.8624 137.531 50.1436C142.258 53.4247 127.307 61.9461 120.86 58.4084Z" fill="#32B768"/>
<path d="M115.628 69.7907C115.628 69.7907 127.015 57.4178 131.968 62.7066C136.921 67.9953 122.872 71.5109 115.628 69.7907Z" fill="#32B768"/>
<path d="M109.531 87.435C109.531 87.435 116.628 87.7579 122.12 84.1716C127.613 80.5853 128.302 77.6092 127.537 76.2384C126.772 74.8675 116.319 74.9073 109.531 87.435Z" fill="#32B768"/>
<path d="M104.365 108.227C104.365 108.227 113.187 89.8935 120.664 93.4046C128.147 96.9113 112.939 108.099 104.365 108.227Z" fill="#32B768"/>
<path d="M101.673 119.437C101.673 119.437 104.415 113.317 109.221 111.411C114.033 109.501 122.01 116.05 101.673 119.437Z" fill="#32B768"/>
<path d="M140.644 161.063V214.301C140.644 215.985 139.278 217.356 137.589 217.356H61.2197C59.5349 217.356 58.1641 215.99 58.1641 214.301V161.063C58.1641 159.379 59.5305 158.008 61.2197 158.008H137.589C139.278 158.012 140.644 159.379 140.644 161.063Z" fill="white"/>
</svg>