<svg width="200" height="248" viewBox="0 0 200 248" fill="none" xmlns="http://www.w3.org/2000/svg">
<path d="M99.9579 221.655C130.31 221.655 154.916 219.686 154.916 217.258C154.916 214.83 130.31 212.861 99.9579 212.861C69.6055 212.861 45 214.83 45 217.258C45 219.686 69.6055 221.655 99.9579 221.655Z" fill="#D3E0D7"/>
<path d="M105.062 126.72V120.856L96.4023 124.665L105.062 126.72Z" fill="#BFD79C"/>
<path d="M105.062 120.856L96.4023 118.485V124.665L105.062 120.856Z" fill="#A0C276"/>
<path d="M105.064 120.856V114.566L96.4043 118.485L105.064 120.856Z" fill="#81AA4B"/>
<path d="M105.064 114.566H96.4043V118.485L105.064 114.566Z" fill="#278F51"/>
<path d="M127.905 161.962H72.5767C72.5767 152.617 76.1529 148.178 81.6474 143.122C83.1683 141.724 84.8263 140.286 86.6075 138.683C94.8151 131.27 96.4044 124.652 96.4044 124.652L105.064 126.707C106.174 132.544 111.915 136.189 117.232 140.053C119.273 141.546 121.246 143.067 122.877 144.766C129.221 151.398 127.905 161.962 127.905 161.962Z" fill="#AFE1C4"/>
<g opacity="0.35">
<path opacity="0.35" d="M127.904 161.962H72.5757C72.5757 152.617 76.1519 148.178 81.6464 143.122C81.6464 143.245 81.6327 143.355 81.6327 143.465C81.4272 146.863 81.8656 150.288 82.8933 153.522C83.0851 154.125 83.3454 154.782 83.9209 155.043C84.8116 155.454 85.7844 154.7 86.3736 153.919C88.5933 151.028 89.3469 147.123 91.9366 144.561C92.3613 144.136 92.9506 143.725 93.5398 143.889C94.0879 144.04 94.3893 144.616 94.6085 145.136C95.5265 147.205 96.4446 149.274 97.3626 151.33C97.8422 152.412 98.3355 153.494 99.1028 154.385C99.8838 155.276 101.007 155.933 102.186 155.865C103.761 155.769 105.022 154.399 105.488 152.892C105.954 151.384 105.803 149.767 105.652 148.205C105.584 147.52 105.529 146.78 105.83 146.15C106.269 145.26 107.392 144.848 108.379 144.985C109.366 145.122 110.243 145.684 111.024 146.315C113.449 148.288 115.203 150.987 117.655 152.933C118.272 153.426 119.053 153.878 119.793 153.659C120.588 153.426 120.999 152.522 120.944 151.699C120.889 150.877 120.492 150.124 120.122 149.398C118.875 146.904 117.957 144.246 117.368 141.533C117.258 141.067 117.189 140.532 117.231 140.053C119.272 141.546 121.245 143.067 122.876 144.766C129.22 151.398 127.904 161.962 127.904 161.962Z" fill="#AFE1C4"/>
</g>
<path fill-rule="evenodd" clip-rule="evenodd" d="M124.164 151.988C123.999 151.919 124.054 151.768 123.999 151.645C123.848 151.275 123.52 150.919 123.41 150.521C123.204 150.289 123.136 150.042 122.944 149.727C122.862 149.59 122.725 149.494 122.643 149.357C122.273 148.822 121.903 148.329 121.492 147.822C121.437 147.754 121.41 147.726 121.368 147.658C121.273 147.521 121.108 147.384 121.026 147.233C120.944 147.082 121.026 146.822 121.218 146.63C121.519 146.534 121.697 146.795 121.916 147.014C122.273 147.384 122.684 147.973 122.944 148.384C123.15 148.699 123.355 149.028 123.506 149.37C123.657 149.713 123.821 150.042 123.931 150.398C123.999 150.658 124.013 150.919 124.068 151.165C124.109 151.453 124.15 151.727 124.164 151.988Z" fill="#AFE1C4"/>
<path fill-rule="evenodd" clip-rule="evenodd" d="M78.6043 160.222C78.4125 160.03 78.4399 159.701 78.3851 159.441C78.1933 158.619 77.8781 157.646 77.9192 156.728C77.8096 156.07 77.8507 155.509 77.9192 154.686C77.9466 154.33 77.9329 153.974 77.9877 153.631C78.2207 152.165 78.7276 150.809 79.5361 149.507C79.6183 149.384 79.7142 149.233 79.8238 149.096C80.0705 148.781 80.3582 148.383 80.6459 148.137C80.9611 147.863 81.3585 147.835 81.5503 148.014C81.5366 148.411 81.057 148.822 80.6871 149.329C80.0568 150.151 79.3854 151.439 79.0702 152.398C78.8236 153.124 78.6729 153.905 78.5496 154.645C78.4262 155.413 78.4125 156.166 78.4125 156.92C78.4125 157.468 78.3714 158.002 78.4125 158.537C78.481 159.098 78.5358 159.66 78.6043 160.222Z" fill="#AFE1C4"/>
<path fill-rule="evenodd" clip-rule="evenodd" d="M80.6314 154.426C80.4944 154.303 80.604 154.166 80.604 154.029C80.6178 153.618 80.4944 153.111 80.6725 152.686C80.6451 152.357 80.7548 152.097 80.8644 151.699C80.9055 151.535 80.9055 151.343 80.9466 151.179C81.1521 150.48 81.4262 149.836 81.7961 149.192C81.8509 149.11 81.8783 149.069 81.9331 148.986C82.0427 148.822 82.1524 148.616 82.2894 148.479C82.4401 148.342 82.7142 148.37 82.9334 148.534C83.0841 148.822 82.8649 149.041 82.7141 149.315C82.4538 149.754 82.1112 150.357 81.9194 150.809C81.755 151.151 81.6454 151.507 81.5083 151.85C81.3713 152.193 81.2891 152.549 81.1658 152.891C81.0836 153.138 80.9466 153.371 80.8781 153.631C80.7959 153.837 80.7273 154.097 80.6314 154.426Z" fill="#AFE1C4"/>
<path fill-rule="evenodd" clip-rule="evenodd" d="M120.656 151.179C120.492 151.124 120.547 150.987 120.519 150.892C120.396 150.576 120.081 150.275 120.012 149.919C119.821 149.713 119.779 149.508 119.629 149.22C119.56 149.097 119.437 149.014 119.368 148.891C119.067 148.411 118.766 147.973 118.437 147.507C118.396 147.439 118.382 147.425 118.341 147.356C118.272 147.233 118.135 147.096 118.08 146.973C118.026 146.822 118.149 146.603 118.354 146.425C118.656 146.342 118.793 146.589 118.957 146.795C119.245 147.137 119.56 147.658 119.766 148.042C119.93 148.329 120.081 148.617 120.204 148.918C120.328 149.22 120.451 149.508 120.533 149.823C120.588 150.042 120.588 150.289 120.615 150.494C120.629 150.713 120.656 150.946 120.656 151.179Z" fill="#AFE1C4"/>
<path fill-rule="evenodd" clip-rule="evenodd" d="M99.9239 149.63C100.033 149.535 100.006 149.644 100.006 149.658C100.075 149.699 100.239 149.973 100.034 150.069C99.9924 150.233 99.8142 150.247 99.6498 150.247C99.5813 150.247 99.4717 150.274 99.4032 150.247C99.0743 150.124 98.8962 149.685 98.9784 149.356C98.9784 149.315 98.9922 149.288 99.0196 149.247C99.0607 149.165 99.0743 149.055 99.1428 149.014C99.2251 148.959 99.4443 149.069 99.6362 149.26C99.828 149.48 99.7869 149.48 99.7869 149.535C99.7869 149.617 99.8417 149.644 99.7869 149.63C99.8417 149.603 99.7869 149.617 99.7732 149.685C99.7595 149.713 99.7732 149.74 99.7732 149.74C99.8143 149.863 99.7732 149.74 99.7594 149.754C99.6909 149.713 99.7868 149.767 99.8279 149.74C99.8553 149.74 99.9239 149.713 99.9239 149.63Z" fill="#AFE1C4"/>
<path fill-rule="evenodd" clip-rule="evenodd" d="M112.928 156.303C113.065 156.358 112.983 156.413 113.024 156.468C113.188 156.618 113.366 156.427 113.435 156.454C113.449 156.331 113.504 156.331 113.531 156.207C113.531 156.153 113.476 156.098 113.462 156.057C113.421 155.851 113.325 155.824 113.312 155.865C113.312 155.865 113.312 155.892 113.312 155.865C113.298 155.81 113.216 155.741 113.051 155.563C112.873 155.262 113.12 155.111 113.339 155.084C113.531 155.043 113.764 155.097 113.928 155.248C114.106 155.399 114.175 155.618 114.202 155.769C114.243 156.002 114.23 156.207 114.148 156.413C114.052 156.605 113.915 156.851 113.627 156.934C113.38 157.002 113.202 156.879 113.079 156.783C112.928 156.66 112.846 156.44 112.928 156.303Z" fill="#AFE1C4"/>
<path fill-rule="evenodd" clip-rule="evenodd" d="M85.7433 155.563C85.8803 155.591 85.7844 155.632 85.7844 155.659C85.7981 155.741 85.8666 156.002 85.7022 156.043C85.6747 156.18 85.5514 156.207 85.4281 156.248C85.3733 156.276 85.2911 156.344 85.2226 156.344C84.9075 156.358 84.5923 156.111 84.4827 155.81C84.4689 155.783 84.4553 155.741 84.4553 155.7C84.4416 155.618 84.4142 155.495 84.4553 155.399C84.5101 155.289 84.7567 155.317 85.0033 155.426C85.2637 155.563 85.2363 155.536 85.2637 155.563C85.3048 155.577 85.346 155.618 85.3323 155.604C85.3323 155.604 85.3323 155.577 85.3323 155.604C85.346 155.618 85.3322 155.618 85.387 155.632C85.4144 155.646 85.5103 155.673 85.5514 155.659C85.62 155.659 85.6885 155.632 85.7433 155.563Z" fill="#AFE1C4"/>
<path fill-rule="evenodd" clip-rule="evenodd" d="M116.23 28.2026C115.627 29.8058 114.092 31.2034 113.161 32.8065C111.708 35.3277 110.612 38.2873 109.749 41.3292C108.899 44.3847 108.214 47.5088 107.46 50.4958C106.967 54.8805 106.173 58.5526 105.46 64.0334C105.159 66.4039 105.145 68.7743 104.926 71.0352C103.98 80.8321 103.46 90.0947 103.364 100.001C103.35 101.015 103.323 102.111 103.309 103.235C103.24 105.838 103.405 108.976 103.322 111.415C103.227 114.101 102.363 116.156 101.281 116.43C100.048 114.58 100.061 110.004 99.9929 105.605C99.801 98.2063 100.281 87.9161 100.938 80.791C101.404 75.3239 101.98 69.7746 102.829 64.513C103.72 59.1144 104.501 53.8665 105.803 48.7146C106.762 44.9739 108.118 41.4251 109.68 38.0407C111.297 34.396 113.489 31.0253 116.23 28.2026Z" fill="#1C663A"/>
<path fill-rule="evenodd" clip-rule="evenodd" d="M138.538 64.0605C137.167 64.1564 135.715 63.4439 134.249 63.4302C131.974 63.4028 129.563 64.0879 127.357 65.1293C125.137 66.1706 123.123 67.5956 121.205 68.9384C120.602 69.5276 120.04 70.1168 119.492 70.7197C118.916 71.2815 118.409 71.9118 117.848 72.5284C117.286 73.1449 116.779 73.8438 116.203 74.5426C115.696 75.2962 115.093 76.0635 114.573 76.9952C113.614 78.5435 113.024 80.2837 112.298 81.8594C110.75 85.2849 109.544 88.7653 108.462 92.3004C107.407 95.8355 106.406 99.4391 105.612 103.139C105.447 103.906 105.269 104.714 105.091 105.564C104.68 107.51 104.474 109.88 104.2 111.716C103.885 113.717 102.953 115.238 101.857 115.429C100.651 113.936 101.008 110.25 101.501 106.811C102.282 100.96 104.584 93.2732 106.489 87.9705C107.955 83.9147 109.695 79.8041 112.038 76.2005C114.395 72.5147 117.258 69.1303 120.807 66.6639C123.411 64.8963 126.302 63.8002 129.234 63.1973C132.358 62.5533 135.701 62.7314 138.538 64.0605Z" fill="#278F51"/>
<path fill-rule="evenodd" clip-rule="evenodd" d="M140.086 83.0518C139.743 82.49 139.537 81.9145 139.236 81.3253C138.962 80.7362 138.592 80.147 138.112 79.7222C136.55 78.3383 134.262 78.0094 132.138 78.1876C129.987 78.3931 127.891 78.8864 125.89 79.4482C123.259 80.8321 120.971 81.9145 118.162 84.3672C116.97 85.4497 116.052 86.7788 115.079 87.9297C110.955 93.0406 108.078 98.7269 106.283 105.071C106.105 105.729 105.913 106.427 105.707 107.154C105.255 108.839 105.022 110.908 104.68 112.511C104.323 114.265 103.323 115.553 102.227 115.676C101.117 114.306 101.542 111.059 102.117 108.017C102.569 105.441 103.405 102.413 104.57 99.5353C105.707 96.6442 107.173 93.9038 108.53 91.7663C110.571 88.4641 113.079 85.2852 116.039 82.8326C119.053 80.3251 122.424 78.2013 126.192 77.2421C127.562 76.9133 128.946 76.7215 130.316 76.7352C131.673 76.6941 133.043 76.8311 134.386 77.1325C135.811 77.4614 137.236 78.1054 138.291 79.1604C139.346 80.1744 140.072 81.5857 140.086 83.0518Z" fill="#1C663A"/>
<path fill-rule="evenodd" clip-rule="evenodd" d="M115.86 125.2C115.243 124.802 115.572 124.158 115.463 123.637C115.12 121.98 113.969 120.267 113.75 118.513C113.01 117.417 112.873 116.348 112.188 114.937C111.9 114.348 111.366 113.964 111.023 113.704C110.653 113.388 110.16 113.142 109.598 112.923C109.05 112.717 108.324 112.457 107.817 112.333C107.269 112.21 107.008 112.251 106.748 112.374C106.474 112.498 106.118 112.785 105.762 113.224C105.597 113.416 105.433 113.608 105.255 113.813C104.83 114.306 104.638 114.964 104.432 115.266C104.309 115.444 104.035 115.54 103.665 115.718C103.281 115.896 102.829 116.156 102.309 116.321C101.651 116.17 101.308 115.43 101.363 114.635C101.418 113.827 101.815 113.073 102.185 112.429C102.514 111.867 102.87 111.347 103.364 110.799C103.857 110.251 104.515 109.675 105.433 109.291C106.337 108.88 107.529 108.88 108.296 109.086C109.105 109.278 109.68 109.552 110.16 109.744C110.927 110.072 111.818 110.442 112.681 111.155C113.572 111.867 114.161 112.923 114.449 113.731C115.01 115.361 115.531 116.8 115.805 118.376C115.997 119.513 115.901 120.664 115.956 121.747C116.038 122.898 115.997 124.049 115.86 125.2Z" fill="#278F51"/>
<path fill-rule="evenodd" clip-rule="evenodd" d="M126.93 140.875C126.478 139.765 127.012 138.463 127.054 137.271C127.218 133.476 126.41 129.091 126.314 125.104C125.629 122.309 125.56 119.828 124.615 116.417C124.19 114.951 123.422 113.635 122.778 112.402C121.381 109.703 119.326 107.647 116.75 106.661C115.489 106.154 114.133 105.935 112.872 106.085C111.598 106.222 110.488 106.743 109.46 107.62C109.035 107.976 108.597 108.415 108.131 108.908C107.131 110.032 105.911 111.881 105.171 112.923C104.76 113.526 104.363 113.909 103.938 114.293C103.5 114.663 103.075 115.088 102.541 115.266C101.801 114.718 101.65 113.114 102.253 111.758C102.828 110.36 103.76 109.209 104.596 108.004C105.336 106.99 106.226 105.852 107.473 104.838C108.707 103.824 110.392 103.03 112.118 102.797C115.612 102.331 118.805 103.742 120.901 105.318C124.258 107.867 126.053 111.676 126.944 115.211C127.821 118.869 128.259 122.35 128.41 125.844C128.492 128.379 128.218 130.845 128.04 133.256C127.835 135.832 127.465 138.367 126.93 140.875Z" fill="#278F51"/>
<path fill-rule="evenodd" clip-rule="evenodd" d="M136.605 128.666C136.262 127.473 136.906 126.199 137.002 124.952C137.358 121.006 136.399 116.512 135.344 112.62C133.988 110.058 133.015 107.729 130.357 105.304C129.192 104.29 127.767 103.673 126.479 103.07C123.656 101.755 120.601 101.22 117.668 101.549C114.75 101.864 111.968 103.098 109.666 105.071C109.187 105.468 108.707 105.92 108.214 106.413C107.09 107.551 106.131 109.209 105.433 110.51C104.638 111.894 103.514 112.922 102.391 112.895C101.445 111.36 102.706 108.03 104.652 105.482C106.227 103.276 108.748 101.083 111.735 99.7543C114.709 98.3841 118.066 98.0278 120.683 98.3156C124.725 98.6718 128.685 100.343 131.617 102.988C134.632 105.715 136.659 109.25 137.536 112.908C138.221 115.58 138.126 118.238 138.016 120.759C137.906 123.5 137.386 126.144 136.605 128.666Z" fill="#1C663A"/>
<path fill-rule="evenodd" clip-rule="evenodd" d="M147.799 124.638C147.429 123.117 148.005 121.308 148.046 119.65C148.115 117.033 147.827 114.17 147.224 111.374C146.635 108.565 145.744 105.839 144.758 103.276C143.785 101.564 142.839 100.015 141.688 98.4807C140.537 96.9598 139.181 95.3841 137.221 93.9865C135.522 92.7807 133.563 92.0956 131.727 91.6571C129.726 91.1775 127.74 91.1775 125.835 91.7256C123.93 92.26 122.067 93.2191 120.286 94.2879C116.737 96.4528 113.585 99.2754 110.982 102.687C110.461 103.386 109.9 104.153 109.351 104.962C108.077 106.825 106.995 109.333 106.159 111.237C105.707 112.265 105.227 113.114 104.734 113.772C104.241 114.43 103.747 114.909 103.199 115.019C102.596 114.128 102.555 112.416 103.062 110.621C103.556 108.812 104.446 106.935 105.419 105.099C107.05 102.016 109.584 98.6451 112.667 95.8636C115.737 93.0547 119.285 90.9035 122.464 89.5607C123.698 89.0537 125.013 88.629 126.411 88.396C127.808 88.1631 129.261 88.1631 130.644 88.3549C133.44 88.7386 135.975 89.917 138.098 91.4379C142.469 94.5894 145.456 99.0014 147.142 103.674C148.361 107.099 148.69 110.607 148.813 113.991C148.909 117.609 148.512 121.185 147.799 124.638Z" fill="#278F51"/>
<path fill-rule="evenodd" clip-rule="evenodd" d="M84.4418 135.092C83.8663 134.53 84.2911 133.818 84.2774 133.188C84.2363 131.201 83.6882 128.734 84.4144 126.624C84.3596 125.007 84.894 123.733 85.5654 121.856C85.8668 121.048 85.9901 120.143 86.3738 119.376C87.1959 117.745 88.251 116.238 89.5527 114.936C90.2104 114.292 90.9229 113.676 91.7176 113.155C92.4986 112.634 93.3207 112.114 94.4443 111.771C94.8965 111.634 95.4446 111.538 96.0338 111.566C97.4588 111.552 99.1715 112.319 99.8566 113.443C100.254 114.046 100.295 114.758 100.048 115.252C99.8018 115.772 99.3222 116.06 98.7878 116.156C98.1575 115.95 97.815 115.745 97.4862 115.498C97.1573 115.252 96.7873 114.964 96.4037 114.923C95.8419 114.813 94.8006 115.156 93.6359 115.909C92.5124 116.608 91.5121 117.499 90.7859 118.335C89.6486 119.595 88.7854 121.13 88.018 122.623C87.2233 124.158 86.7849 125.83 86.3053 127.487C85.949 128.693 85.4558 129.872 85.2091 131.105C84.9762 132.365 84.7296 133.667 84.4418 135.092Z" fill="#278F51"/>
<path fill-rule="evenodd" clip-rule="evenodd" d="M65.0926 137.326C64.3316 136.161 64.4758 134.448 64.3709 132.996C63.9378 128.42 63.9116 122.774 65.46 117.992C66.0111 114.416 67.1396 111.58 68.7536 107.373C69.1341 106.455 69.5409 105.496 70.1576 104.633C70.7612 103.756 71.5223 103.03 72.3227 102.468C75.7869 100.139 79.7497 99.1246 83.7387 99.1658C87.7015 99.2617 91.7955 100.563 95.1285 103.263C95.8108 103.811 96.5064 104.455 97.1624 105.195C98.6715 106.853 100.299 109.141 100.968 111.224C101.755 113.525 101.086 115.499 100.115 115.8C99.4194 115.17 98.9601 114.06 98.3434 112.786C97.7398 111.511 96.9787 110.059 95.9946 108.812C94.3412 106.716 91.8612 104.647 88.9875 103.55C86.1269 102.413 82.9777 102.221 80.4977 102.591C78.5819 102.852 76.7054 103.468 74.9996 104.345C74.1467 104.784 73.3856 105.291 72.7557 105.852C72.1259 106.428 71.6798 107.058 71.2468 107.88C70.8138 108.702 70.42 109.716 70.0264 110.703C69.6458 111.689 69.2653 112.662 68.9242 113.649C68.2418 115.608 67.612 117.581 67.0609 119.541C66.2605 122.404 65.4731 125.2 65.1451 128.077C64.8039 131.174 64.7777 134.243 65.0926 137.326Z" fill="#1C663A"/>
<path fill-rule="evenodd" clip-rule="evenodd" d="M75.0549 143.793C74.3835 142.902 74.6986 141.655 74.6164 140.587C74.3423 137.216 73.7669 133.119 74.6301 129.502C74.6712 126.843 75.2878 124.637 76.3154 121.445C76.7676 120.075 77.1101 118.622 77.7815 117.362C79.1929 114.635 81.2756 112.182 83.8652 110.497C85.1532 109.647 86.4686 108.962 87.9073 108.346C89.346 107.757 90.9903 107.25 92.8675 107.345C93.6211 107.387 94.4706 107.551 95.2927 107.935C97.1973 108.729 98.9512 110.552 99.4582 112.388C99.7596 113.374 99.6088 114.347 99.2252 114.964C98.8552 115.594 98.2524 115.854 97.7317 115.827C97.2384 115.224 96.9918 114.512 96.6081 113.717C96.2245 112.936 95.6626 112.032 94.8542 111.497C94.1828 111.031 93.4292 110.771 92.4701 110.757C91.5383 110.744 90.4696 110.976 89.3871 111.388C87.1948 112.237 85.0573 113.443 83.7008 114.676C81.5222 116.553 80.0149 119.211 78.864 121.897C77.6719 124.679 77.0827 127.652 76.4935 130.598C76.0688 132.735 75.5618 134.832 75.37 136.956C75.1781 139.23 75.0823 141.505 75.0549 143.793Z" fill="#278F51"/>
<path fill-rule="evenodd" clip-rule="evenodd" d="M52.3511 72.8578C52.3773 72.1864 52.7054 71.515 53.1909 70.9669C53.6764 70.4188 54.2537 69.953 54.7917 69.5282C56.4713 68.1306 58.7021 67.0207 61.1427 66.6645C63.5834 66.2945 66.1553 66.6371 68.3729 67.4866C70.0525 67.8018 71.5483 68.3498 73.0836 69.0075C74.6189 69.6789 76.2459 70.4462 78.1486 71.4328C79.7888 72.2823 81.5078 73.0222 82.9906 74.0499C86.2317 76.2696 88.9611 79.1744 91.1393 82.3807C93.3438 85.587 95.1021 89.0673 96.6898 92.6984C97.0179 93.4383 97.3459 94.2604 97.6608 95.0962C98.4088 97.0693 99.4323 99.2479 99.9965 101.235C100.298 102.331 100.311 103.427 100.075 104.222C99.8391 105.03 99.3798 105.537 98.8681 105.66C98.2645 104.989 97.8446 103.948 97.2934 102.632C96.703 101.207 96.0731 99.659 95.4302 98.1106C94.3017 95.4662 93.0026 92.3147 91.4936 89.3551C90.0108 86.3817 88.2787 83.6139 86.6254 81.586C84.1191 78.4345 80.9174 75.9956 77.5451 74.0088C75.8261 72.9811 74.0284 72.1042 72.2307 71.2684C70.4199 70.4462 68.6484 69.7063 66.8638 69.1446C64.2788 68.3224 61.6676 67.7332 59.1219 68.2676C56.4451 68.8294 53.8338 70.3092 52.3511 72.8578Z" fill="#1C663A"/>
<path fill-rule="evenodd" clip-rule="evenodd" d="M72.9458 31.217C74.3845 32.1762 75.2889 34.1082 76.3302 35.6017C79.6735 40.3563 83.7019 46.0152 85.9902 51.8797C88.1825 55.8122 89.4568 59.4432 91.3613 64.7459C92.1972 67.0342 93.17 69.2402 93.8826 71.4599C96.9107 81.065 98.9523 90.3413 100.829 100.275C101.021 101.289 101.213 102.399 101.391 103.536C101.802 106.153 102.46 109.291 102.734 111.771C103.022 114.498 102.419 116.677 101.391 117.074C99.9251 115.375 99.3633 110.812 98.5412 106.469C97.171 99.1654 95.3075 89.0396 93.6085 82.1064C92.3479 76.7763 90.7995 71.4462 89.2101 66.3902C87.5933 61.1971 85.6202 56.2781 83.5923 51.4823C82.0988 47.9883 80.7012 44.5491 78.961 41.3154C77.0975 37.8214 75.097 34.4781 72.9458 31.217Z" fill="#278F51"/>
<path fill-rule="evenodd" clip-rule="evenodd" d="M51.7341 134.887C51.3439 133.147 51.8851 130.941 51.9984 128.995C52.4641 122.829 52.464 115.416 54.5406 109.031C55.0189 106.674 55.7363 104.564 56.7054 102.399C57.2088 101.317 57.7878 100.221 58.5429 99.152C59.3107 98.0695 60.2545 97.0556 61.3369 96.069C63.2122 94.4111 64.8987 92.6709 66.862 91.2596C68.9638 89.7387 71.3928 88.574 73.8974 88.0123C76.4019 87.4642 78.982 87.4231 81.4739 87.8752C83.9785 88.2863 86.4075 89.218 88.6855 90.5197C90.9509 91.8625 93.0276 93.6164 94.8022 95.7265C95.5447 96.576 96.2495 97.5763 96.9291 98.645C98.4897 101.111 100.05 104.331 100.68 107.058C101.422 110.059 100.793 112.498 99.8615 112.854C99.1819 111.95 98.7163 110.347 98.0744 108.497C97.4451 106.647 96.6774 104.51 95.6202 102.591C93.8708 99.3849 91.1146 95.9046 87.6409 93.7397C84.1925 91.4926 80.1399 90.6156 76.9305 90.7801C74.4386 90.876 72.0221 91.5885 69.8448 92.8354C67.6549 94.0823 65.5279 95.8635 63.4513 97.4941C62.4193 98.3299 61.4754 99.1931 60.7076 100.152C59.9399 101.098 59.298 102.221 58.7191 103.4C57.5738 105.811 56.6803 108.373 55.9377 110.977C54.8553 114.772 53.9743 118.595 53.3954 122.473C52.7535 126.638 52.2878 130.749 51.7341 134.887Z" fill="#278F51"/>
<path d="M99.9482 151.308H62.7308C61.3407 151.308 60.2454 152.55 60.4034 153.965L65.827 205.938C66.501 212.376 71.7982 217.258 78.1064 217.258H99.9587H121.811C128.119 217.258 133.417 212.376 134.091 205.938L139.514 153.965C139.662 152.539 138.577 151.308 137.187 151.308H99.9482Z" fill="white"/>
</svg>