<svg width="174" height="172" viewBox="0 0 174 172" fill="none" xmlns="http://www.w3.org/2000/svg">
<path d="M87.4118 171.507C123.547 171.507 152.841 169.704 152.841 167.481C152.841 165.257 123.547 163.454 87.4118 163.454C51.2764 163.454 21.9829 165.257 21.9829 167.481C21.9829 169.704 51.2764 171.507 87.4118 171.507Z" fill="#D3E0D7"/>
<path fill-rule="evenodd" clip-rule="evenodd" d="M163.22 61.8584C163.153 61.5975 162.99 61.3676 162.786 61.2172C162.578 61.0669 162.348 60.974 162.11 60.9033C161.628 60.7618 161.115 60.7441 160.597 60.6954C159.567 60.6026 158.51 60.4478 157.511 60.4168C154.34 60.2577 150.891 60.3196 147.415 60.607C143.939 60.8944 140.442 61.3941 137.129 62.0176C136.838 62.0884 136.546 62.1636 136.258 62.2343C135.971 62.3139 135.688 62.3979 135.409 62.4775C134.843 62.6323 134.286 62.7871 133.729 62.9374C133.176 63.1099 132.628 63.2868 132.071 63.4592C131.513 63.6273 130.952 63.7997 130.399 64.0164C129.837 64.2198 129.271 64.4232 128.688 64.6355C128.113 64.861 127.534 65.1219 126.928 65.374C126.627 65.5022 126.322 65.6349 126.012 65.7675C125.712 65.9179 125.402 66.0727 125.093 66.2274C124.779 66.3822 124.465 66.5414 124.137 66.705C123.974 66.7846 123.81 66.8686 123.647 66.9527C123.487 67.0455 123.324 67.1384 123.165 67.2357C122.607 67.5673 122.055 67.9034 121.497 68.235C120.954 68.58 120.445 68.9691 119.919 69.3361C118.866 70.0525 117.898 70.8573 116.938 71.6356C114.86 73.3337 112.91 75.1511 110.938 76.9288C108.97 78.7109 107.011 80.4797 105.052 82.2486C101.143 85.7862 97.1938 89.2929 93.8994 93.5292C93.2272 94.396 92.533 95.3467 91.8652 96.3638C91.0958 97.5356 90.3485 98.8843 89.7205 100.26C89.0882 101.635 88.5841 103.032 88.2038 104.279C87.3591 106.994 86.8639 109.148 86.2536 109.409C85.9618 108.361 85.9618 106.508 86.4394 104.385C86.8948 102.258 87.8411 99.897 88.9953 97.7213C89.9593 95.8906 91.2108 93.9759 92.6745 92.1319C94.1337 90.279 95.8009 88.4881 97.5255 86.7856C99.2501 85.0875 101.037 83.4779 102.739 81.9567C104.442 80.4444 106.06 79.0028 107.519 77.7071C109.77 75.7216 111.986 73.6919 114.289 71.7241C115.444 70.7468 116.629 69.796 117.858 68.9116C118.473 68.4694 119.118 68.0759 119.742 67.6602C120.06 67.4612 120.365 67.2401 120.688 67.0544C121.015 66.8731 121.338 66.6873 121.661 66.506C124.31 65.0025 127.06 63.7643 129.877 62.8269C132.69 61.8806 135.533 61.1376 138.403 60.6689C142.582 59.9525 146.681 59.8243 150.718 59.8376C151.797 59.8552 152.876 59.8508 153.947 59.9172L155.556 59.9923L157.157 60.1161C158.227 60.1913 159.288 60.3063 160.35 60.4257L161.146 60.5141C161.415 60.5451 161.698 60.5937 161.968 60.6733C162.242 60.7529 162.512 60.8679 162.755 61.058C163.007 61.2349 163.197 61.5356 163.22 61.8584Z" fill="#1C663A"/>
<path d="M111 67.7529C110.686 72.2147 108.643 77.8705 108.59 78.0076C106.777 76.4245 105.632 72.3695 105.53 68.792C105.481 67.1072 105.667 65.5241 106.118 64.3567C106.658 62.9682 107.573 62.1678 108.931 62.4597C109.895 62.6675 110.474 63.3927 110.77 64.4186C110.77 64.4186 110.77 64.4186 110.77 64.423C111.04 65.3428 111.089 66.5014 111 67.7529Z" fill="#32B768"/>
<path d="M108.59 78.0075C108.59 78.0075 123.682 74.8944 124.023 79.9355C124.363 84.9767 111.23 82.1244 108.59 78.0075Z" fill="#32B768"/>
<path d="M118.733 69.4599C116.805 66.1389 116.031 62.6455 116.045 59.7137C116.053 57.7458 116.42 56.0345 117.031 54.7963C117.836 53.1602 119.069 52.3509 120.475 52.8816C124.539 54.416 118.733 69.4599 118.733 69.4599Z" fill="#32B768"/>
<path d="M118.734 69.4599C118.734 69.4599 129.277 81.6648 132.54 78.7993C135.804 75.9383 128.551 69.1106 118.734 69.4599Z" fill="#32B768"/>
<path d="M126.513 65.0864C126.513 65.0864 139.005 52.5941 134.282 48.7071C129.559 44.8245 125.221 61.3763 126.513 65.0864Z" fill="#32B768"/>
<path d="M126.513 65.0864C126.513 65.0864 144.09 66.8597 142.888 72.856C141.689 78.8567 127.857 68.7788 126.513 65.0864Z" fill="#32B768"/>
<path d="M138.7 61.4472C138.7 61.4472 150.188 51.4224 146.522 48.1235C142.861 44.8246 138.125 54.8937 138.7 61.4472Z" fill="#32B768"/>
<path d="M138.699 61.4473C138.699 61.4473 153.142 66.3248 151.019 70.7734C148.892 75.222 140.667 67.7222 138.699 61.4473Z" fill="#32B768"/>
<path d="M147.955 60.3196C147.955 60.3196 164.52 49.9189 161.973 46.1778C159.425 42.4368 149.308 53.8368 147.955 60.3196Z" fill="#32B768"/>
<path d="M147.955 60.3196C147.955 60.3196 165.767 68.4031 163.741 72.4537C161.72 76.5043 150.166 66.5635 147.955 60.3196Z" fill="#32B768"/>
<path d="M157.034 60.3193C157.034 60.3193 169.062 71.8962 172.882 67.797C176.707 63.6977 165.957 57.6572 157.034 60.3193Z" fill="#32B768"/>
<path d="M111 67.7529C110.085 68.8186 106.596 68.8186 105.53 68.7921C105.481 67.1073 105.667 65.5242 106.118 64.3567C107.913 63.9676 110.77 64.4231 110.77 64.4231C110.77 64.4231 110.77 64.4231 110.77 64.4275C111.04 65.3429 111.089 66.5014 111 67.7529Z" fill="#1C663A"/>
<path d="M118.372 56.9679C118.239 58.2326 116.908 59.2099 116.05 59.7184C116.059 57.7506 116.426 56.0393 117.036 54.8011C117.032 54.7967 118.571 55.0885 118.372 56.9679Z" fill="#1C663A"/>
<path fill-rule="evenodd" clip-rule="evenodd" d="M138.275 14.3073C137.231 14.3869 136.086 14.5992 134.98 15.0414C133.875 15.4748 132.813 16.1204 131.929 16.8589C130.532 18.0395 129.284 19.4767 128.091 21.0023C126.897 22.5279 125.672 24.0933 124.438 25.6676C121.975 28.8249 119.397 31.9602 117.08 35.0512C113.984 39.6325 111.99 43.9174 108.837 50.1393C107.501 52.8323 106.312 55.5519 105.074 58.1388C102.398 63.7371 99.9043 69.2205 97.6358 74.8011C95.3673 80.3862 93.2934 86.0641 91.2902 91.9852C90.8789 93.1969 90.4323 94.5058 89.9724 95.8589C88.9111 98.9721 87.7614 102.762 86.7487 105.685C85.6388 108.895 84.3829 111.186 83.7417 111.288C83.8611 108.838 85.6653 103.407 87.3368 98.1584C88.7431 93.7452 90.503 88.4918 92.4178 83.3268C94.3193 78.1574 96.3976 73.0898 98.2195 68.9861C101.014 62.6847 104.07 56.4053 107.121 50.4798C108.695 47.4374 110.212 44.4437 111.778 41.4632C112.569 39.9774 113.4 38.5048 114.32 37.0898C115.236 35.6747 116.213 34.3216 117.23 33.0126C118.711 31.1023 120.263 29.3158 121.794 27.5558C123.324 25.7958 124.84 24.0535 126.335 22.3024C127.922 20.4451 129.492 18.4994 131.42 16.9119C132.38 16.1248 133.424 15.3996 134.591 14.9264C135.75 14.44 137.023 14.2012 138.275 14.3073Z" fill="#1C663A"/>
<path d="M132.468 16.2136C132.468 16.2136 136.806 11.3184 142.82 10.8718C148.834 10.4251 149.568 14.4138 145.292 16.3949C141.016 18.3716 132.468 16.2136 132.468 16.2136Z" fill="#32B768"/>
<path d="M125.062 24.6506C125.062 24.6506 133.734 9.81902 128.591 8.3509C123.448 6.88277 122.002 21.6436 125.062 24.6506Z" fill="#32B768"/>
<path d="M125.062 24.6505C125.062 24.6505 140.796 17.7521 141.663 23.032C142.525 28.312 127.698 28.0378 125.062 24.6505Z" fill="#32B768"/>
<path d="M117.049 34.6667C117.049 34.6667 116.192 32.7343 115.281 30.1695C114.79 28.7854 114.286 27.2155 113.892 25.6634C113.384 23.6602 113.061 21.6924 113.193 20.1889C113.348 18.4864 114.082 17.3853 115.794 17.5047C116.598 17.5622 117.231 17.8629 117.713 18.3449C121.166 21.7852 117.151 34.5252 117.049 34.6667Z" fill="#32B768"/>
<path d="M117.049 34.6665C117.204 34.5383 133.415 28.4093 134.255 34.9451C135.095 41.4853 117.049 34.6665 117.049 34.6665Z" fill="#32B768"/>
<path d="M111.88 43.2193C108.179 42.7992 105.088 40.1283 103.531 37.3335C101.851 34.3221 101.957 31.178 105.008 30.5678C107.356 30.0946 108.922 32.0182 109.961 34.499C111.522 38.2312 111.88 43.2193 111.88 43.2193Z" fill="#32B768"/>
<path d="M111.879 43.2232C111.879 43.2232 123.761 36.0683 126.18 41.556C128.604 47.0394 117.022 49.0072 111.879 43.2232Z" fill="#32B768"/>
<path d="M104.309 58.2277C103.08 57.8651 102.014 57.246 101.112 56.4765C98.8569 54.5574 97.6143 51.6698 97.4109 49.2995C97.2207 47.1018 97.9194 45.3462 99.5202 45.2091C100.082 45.1605 100.573 45.3772 101.015 45.7884C102.589 47.2565 103.447 51.1966 103.889 54.2567C104.199 56.4235 104.305 58.1481 104.309 58.2277Z" fill="#32B768"/>
<path d="M104.309 58.2273C104.309 58.2273 116.178 52.0232 117.942 55.6493C119.702 59.2754 109.81 63.2596 104.309 58.2273Z" fill="#32B768"/>
<path d="M99.7861 67.7968C99.7861 67.7968 99.618 67.62 99.3394 67.3104C98.486 66.3729 96.5933 64.2105 95.1827 62.0658C93.52 59.5364 92.5339 57.0247 94.7184 56.556C96.8498 56.0961 98.0924 58.4221 98.8088 61.0753C99.4234 63.3306 99.6578 65.829 99.7418 67.0451C99.7772 67.5182 99.7861 67.7968 99.7861 67.7968Z" fill="#32B768"/>
<path d="M99.7861 67.7966C99.7861 67.7966 110.138 61.2476 111.925 65.6519C113.716 70.0519 99.7861 67.7966 99.7861 67.7966Z" fill="#32B768"/>
<path d="M117.713 18.3449C117.713 18.3449 115.798 19.8042 113.194 20.1889C113.349 18.4864 114.083 17.3853 115.794 17.5047C116.599 17.5622 117.231 17.8629 117.713 18.3449Z" fill="#1C663A"/>
<path d="M115.28 30.1691C114.789 28.785 114.285 27.2151 113.892 25.663C113.892 25.663 115.506 25.2827 116.138 26.5386C116.616 27.476 115.744 29.3068 115.28 30.1691Z" fill="#1C663A"/>
<path d="M109.961 34.4989C109.961 34.4989 107.577 36.6834 103.531 37.3334C101.851 34.322 101.957 31.1779 105.008 30.5677C107.356 30.0989 108.926 32.0181 109.961 34.4989Z" fill="#1C663A"/>
<path d="M103.884 54.2522L101.107 56.4764C98.8518 54.5573 97.6092 51.6697 97.4058 49.2994C98.7235 47.7738 101.01 45.7883 101.01 45.7883C102.588 47.2565 103.446 51.1965 103.884 54.2522Z" fill="#1C663A"/>
<path d="M99.7452 67.045L99.3384 67.3103C98.4849 66.3728 96.5923 64.2104 95.1816 62.0657C97.1848 60.5888 98.8077 61.0708 98.8077 61.0708C99.4268 63.3349 99.6612 65.8289 99.7452 67.045Z" fill="#1C663A"/>
<path d="M14.285 52.877C14.285 52.877 6.38716 53.6729 2.22158 57.5909C-1.944 61.5088 0.222806 63.4236 4.80406 62.3402C9.38973 61.2523 13.9356 54.8271 14.285 52.877Z" fill="#32B768"/>
<path d="M24.4861 51.2057C24.4861 51.2057 19.016 39.0937 14.2844 41.2605C9.55282 43.4229 17.5037 51.4003 24.4861 51.2057Z" fill="#32B768"/>
<path d="M37.2933 53.7881C37.2933 53.7881 37.6383 38.6735 32.1372 39.5933C26.6362 40.5043 31.2838 51.5285 37.2933 53.7881Z" fill="#32B768"/>
<path d="M48.0127 58.0864C48.0127 58.0864 52.1385 39.8409 45.9697 39.5491C39.8054 39.2572 44.3866 55.3358 48.0127 58.0864Z" fill="#32B768"/>
<path d="M24.4865 51.2053C24.4865 51.2053 17.305 56.0209 16.0536 62.6408C14.8021 69.2562 18.7201 69.0926 20.9709 67.3414C23.2217 65.5859 25.0038 54.4865 24.4865 51.2053Z" fill="#32B768"/>
<path d="M37.2933 53.7883C37.2933 53.7883 32.0664 56.7555 29.6874 60.2578C27.3083 63.7557 27.4852 66.4222 29.6874 67.0899C31.8851 67.7532 37.6205 59.9306 37.2933 53.7883Z" fill="#32B768"/>
<path d="M48.0125 58.0864C48.0125 58.0864 41.2202 61.4207 38.3857 64.4188C35.5512 67.417 33.2207 72.6704 38.3857 71.7506C43.5507 70.8352 48.0125 58.0864 48.0125 58.0864Z" fill="#32B768"/>
<path d="M61.9145 55.8222C60.9726 59.1033 59.0313 62.8886 57.4747 64.9714C57.4747 64.9714 56.1216 58.9928 56.6257 54.5088V54.4867C56.7495 53.3945 56.9839 52.3951 57.3775 51.5903C57.8948 50.529 58.682 49.8082 59.8538 49.6888C61.574 49.5075 62.3302 50.4361 62.4628 51.9396C62.5557 53.0053 62.3346 54.3673 61.9145 55.8222Z" fill="#32B768"/>
<path d="M60.6012 68.372C60.6012 68.372 55.6529 65.6878 50.2536 69.0884C44.8542 72.4889 45.8536 76.2875 50.2536 75.4871C54.6491 74.6867 60.6012 68.372 60.6012 68.372Z" fill="#32B768"/>
<path d="M73.2 63.8438C73.1426 64.1534 73.0453 64.4939 72.9126 64.8565C72.5367 65.8957 71.8778 67.125 71.1128 68.3764C68.9504 71.9097 65.9302 75.5977 65.9302 75.5977C65.9302 75.5977 66.2486 71.1004 67.4691 67.2842C68.1368 65.1881 69.0787 63.2955 70.392 62.4642C70.706 62.2652 71.0377 62.1281 71.3958 62.0617C71.5727 62.0308 71.754 62.0131 71.9398 62.0175C73.0851 62.0352 73.399 62.7516 73.2 63.8438Z" fill="#32B768"/>
<path fill-rule="evenodd" clip-rule="evenodd" d="M7.87305 56.1803C9.33675 54.8669 11.6716 53.9162 13.7102 53.1645C16.9515 51.9395 20.6926 51.1038 24.5531 51.0507C28.4179 50.9667 32.3226 51.8069 35.8337 53.0318C38.4074 53.757 40.7201 54.6281 43.1832 55.57C45.633 56.5341 48.2818 57.5821 51.165 59.3642C53.6414 60.8986 55.9762 62.6277 57.9838 64.5645C62.3086 68.792 65.6826 73.6165 68.7692 78.5426C71.847 83.4821 74.7125 88.6117 77.0164 94.241C77.4984 95.3907 77.9494 96.6554 78.3961 97.9732C79.4175 101.007 80.4081 104.761 80.7353 107.777C80.7795 108.188 80.8193 108.591 80.8503 108.975C80.8812 109.36 80.868 109.736 80.868 110.09C80.8503 110.797 80.8459 111.43 80.7442 111.973C80.5673 113.052 80.3196 113.738 80.0322 113.879C79.8553 113.313 79.7182 112.557 79.6121 111.659C79.5414 111.213 79.4618 110.726 79.391 110.218C79.3601 109.961 79.3247 109.696 79.2893 109.426C79.2451 109.157 79.2009 108.882 79.1522 108.599C78.825 106.349 78.2943 103.753 77.5514 101.263C76.3486 97.0622 74.3145 92.2157 71.9133 87.5946C70.7105 85.2819 69.4193 83.0222 68.1413 80.8952C66.8633 78.7638 65.5986 76.7694 64.4091 75.0138C60.7741 69.6278 56.4184 64.5778 51.2756 61.0755L50.285 60.4166L49.2635 59.8108C48.5914 59.3996 47.8838 59.0458 47.1763 58.6964C45.7524 58.0066 44.2887 57.4008 42.8073 56.8127C39.8357 55.6497 36.8994 54.4911 33.9455 53.5757C31.7875 52.908 29.6428 52.3641 27.476 52.0545C25.3137 51.7627 23.1292 51.6919 20.9712 51.8909C16.3546 52.3287 11.8573 53.7968 7.87305 56.1803Z" fill="#1C663A"/>
<path d="M61.9153 55.8222C59.4876 55.5481 56.6221 54.5089 56.6221 54.5089V54.4868C56.7459 53.3945 56.9803 52.3951 57.3738 51.5903L62.4592 51.9353C62.5565 53.0054 62.3354 54.3674 61.9153 55.8222Z" fill="#1C663A"/>
<path d="M72.9128 64.8564C72.5369 65.8956 71.878 67.125 71.113 68.3764C68.7737 68.0536 67.4692 67.2842 67.4692 67.2842C68.137 65.1881 69.0789 63.2955 70.3922 62.4641C71.5508 63.4502 72.9128 64.8564 72.9128 64.8564Z" fill="#1C663A"/>
<path d="M73.1997 63.8436C71.851 62.8884 71.3955 62.0571 71.3955 62.0571C71.5724 62.0261 71.7537 62.0085 71.9394 62.0129C73.0847 62.035 73.3987 62.7514 73.1997 63.8436Z" fill="#1C663A"/>
<path fill-rule="evenodd" clip-rule="evenodd" d="M47.9141 6.95825C48.7985 7.45352 49.6564 8.24507 50.4169 9.15159C51.1731 10.0625 51.8497 11.0796 52.4732 12.0304C56.2629 18.1991 60.5037 25.5972 63.546 32.7344C64.143 33.9859 64.7046 35.2019 65.253 36.418C65.5227 37.0283 65.7969 37.6385 66.071 38.2487C66.3231 38.8723 66.5752 39.5002 66.8361 40.137C67.3446 41.4149 67.8708 42.7327 68.428 44.1389C68.9542 45.5584 69.507 47.0619 70.1128 48.6936C70.6567 50.0954 71.1608 51.5061 71.6649 52.8946C72.1646 54.2876 72.6909 55.654 73.1242 57.0248C73.5841 58.5106 74.0396 59.9876 74.4951 61.4557L74.8356 62.5568L75.1451 63.6623C75.3485 64.4008 75.5519 65.1349 75.7554 65.8689C76.6044 68.7963 77.2721 71.7503 77.9973 74.6954C78.3378 76.1723 78.6297 77.6626 78.9525 79.1484C79.1073 79.8913 79.2665 80.6386 79.4257 81.3815C79.5627 82.1333 79.6954 82.885 79.8325 83.6368C80.0978 85.1447 80.3897 86.657 80.6373 88.1826C80.8672 89.7127 81.0972 91.256 81.3271 92.8081C81.535 94.0772 81.6721 95.4613 81.8268 96.8897C82.2292 100.171 82.6095 104.129 82.7908 107.228C82.897 110.638 82.5299 113.225 81.9639 113.539C81.5836 112.371 81.3404 110.368 81.1458 107.971C81.0618 106.773 80.9026 105.482 80.7965 104.146C80.6638 102.811 80.5754 101.431 80.4074 100.074C79.859 95.5011 79.178 90.0443 78.1831 84.6715C77.2677 79.2855 76.056 74.0011 75.0169 69.6719C73.3498 63.0476 71.32 56.4234 69.193 50.1485C67.0041 43.7144 64.457 37.5899 61.848 31.6024C60.8574 29.44 59.9686 27.2643 58.9559 25.1771C57.9698 23.0767 57.0147 20.9806 55.9268 18.9597C54.7904 16.7885 53.707 14.5907 52.4599 12.5212C51.2041 10.4649 49.7669 8.50155 47.9141 6.95825Z" fill="#1C663A"/>
<path d="M52.9104 12.5834C53.1271 12.6055 50.5446 -1.27973 46.012 0.396231C41.4838 2.06777 46.8389 12.013 52.9104 12.5834Z" fill="#32B768"/>
<path d="M57.2702 20.3883C57.2702 20.3883 54.6612 6.88771 60.7283 6.81253C66.7953 6.74178 57.2702 20.3883 57.2702 20.3883Z" fill="#32B768"/>
<path d="M70.7362 21.507C69.1399 25.3542 65.6155 29.4579 62.0425 30.0372C62.0425 30.0372 62.1619 21.3876 64.8461 16.9833C65.8189 15.3869 67.1278 14.3477 68.8878 14.4804C72.0408 14.7147 72.1867 18.0048 70.7362 21.507Z" fill="#32B768"/>
<path d="M57.271 20.3882C57.271 20.3882 48.5286 12.8044 44.6902 17.4785C40.8563 22.1482 53.1143 24.0629 57.271 20.3882Z" fill="#32B768"/>
<path d="M62.0427 30.0373C62.0427 30.0373 54.6578 26.6102 49.3602 28.7018C44.0626 30.7934 43.4347 35.3968 49.9218 35.326C56.4045 35.2597 62.0427 30.0373 62.0427 30.0373Z" fill="#32B768"/>
<path d="M74.8809 34.99C74.0761 36.3653 72.9794 37.8688 71.5511 39.3856C70.7109 40.2744 69.7601 41.1676 68.6812 42.0432C68.3141 42.3439 67.9294 42.6446 67.5314 42.9365C67.5314 42.9365 67.4032 42.0521 67.3545 40.752C67.2661 38.5011 67.4032 34.99 68.8182 32.6065C69.2914 31.8106 69.8442 31.134 70.4367 30.5768C72.6389 28.4896 75.3585 28.0076 76.349 28.777C77.0521 29.3209 76.7293 31.8327 74.8809 34.99Z" fill="#32B768"/>
<path d="M68.1357 44.5106C68.1357 44.5106 64.4256 40.2787 58.4956 39.9294C52.5701 39.5801 50.8278 42.1846 51.7343 44.5106C52.6408 46.8322 66.4067 46.5802 68.1357 44.5106Z" fill="#32B768"/>
<path d="M71.6203 54.4161C71.6203 54.4161 68.0119 50.3832 62.4843 49.6668C56.9567 48.946 54.0338 50.5247 53.9099 52.8772C53.7861 55.2298 68.6796 56.4635 71.6203 54.4161Z" fill="#32B768"/>
<path d="M75.2683 66.8687C75.2683 66.8687 64.2794 56.6891 61.1398 60.4567C58.0001 64.2243 69.2764 70.0791 75.2683 66.8687Z" fill="#32B768"/>
<path d="M77.7893 77.6408C77.7893 77.6408 73.071 71.64 70.4575 73.3337C67.8441 75.0229 72.6951 80.042 77.7893 77.6408Z" fill="#32B768"/>
<path d="M80.3724 47.2169C79.5896 48.318 78.6389 49.4279 77.5599 50.4583C75.8397 52.1077 73.7967 53.5493 71.6211 54.416C71.652 54.3187 72.5542 51.5992 73.925 48.5435C73.925 48.5435 73.925 48.5435 73.925 48.5391C74.8359 46.5094 75.9547 44.3293 77.1664 42.6666C78.4311 40.9287 79.7975 39.7525 81.1329 39.9028C83.6756 40.1814 82.9106 43.6483 80.3724 47.2169Z" fill="#32B768"/>
<path d="M81.375 62.6937L81.3661 62.7026C80.1368 63.8081 78.7394 64.865 77.3111 65.7494C76.6345 66.1695 75.9447 66.5498 75.2637 66.8726C75.2637 66.8726 75.3786 66.196 75.6395 65.1657C76.0906 63.3615 76.9883 60.4694 78.4874 58.2319C79.7078 56.41 81.3219 55.0259 83.4224 55.0038C87.6631 54.9596 85.4079 59.0721 81.375 62.6937Z" fill="#32B768"/>
<path d="M77.7905 77.6404C77.7905 77.6404 78.0337 67.8366 81.6068 68.5398C85.1842 69.2429 81.2972 75.8362 77.7905 77.6404Z" fill="#32B768"/>
<path d="M81.3755 62.6943L81.3667 62.7031C80.1374 63.8086 78.74 64.8655 77.3117 65.7499C76.697 65.573 76.1398 65.374 75.6401 65.1706C76.0912 63.3664 76.9889 60.4744 78.4879 58.2368C79.9561 60.0897 81.3755 62.6943 81.3755 62.6943Z" fill="#1C663A"/>
<path d="M71.5496 39.3855C70.7094 40.2743 69.7586 41.1676 68.6796 42.0431C68.2949 42.1625 68.0429 42.2333 68.0429 42.2333L67.353 40.7519C67.353 40.7519 67.6758 38.5806 71.5496 39.3855Z" fill="#1C663A"/>
<path d="M80.3849 47.2168C79.6022 48.3179 78.6514 49.4279 77.5724 50.4582C75.4941 49.7197 73.9375 48.539 73.9375 48.539C73.9375 48.539 73.9375 48.539 73.9375 48.5346C74.8484 46.5049 75.9672 44.3248 77.1789 42.6621C78.6293 43.9799 80.3849 47.2168 80.3849 47.2168Z" fill="#1C663A"/>
<path d="M74.8792 34.99C71.4964 33.2256 70.5014 30.7449 70.4351 30.5768C72.6372 28.4896 75.3568 28.0076 76.3473 28.777C77.0505 29.3209 76.7277 31.8327 74.8792 34.99Z" fill="#1C663A"/>
<path d="M70.7365 21.507C64.6208 20.4634 64.8463 16.9833 64.8463 16.9833C65.8191 15.3869 67.1281 14.3477 68.888 14.4804C72.041 14.7147 72.1869 18.0048 70.7365 21.507Z" fill="#1C663A"/>
<path d="M128.644 111.063V164.301C128.644 165.985 127.278 167.356 125.589 167.356H49.2197C47.5349 167.356 46.1641 165.99 46.1641 164.301V111.063C46.1641 109.379 47.5305 108.008 49.2197 108.008H125.589C127.278 108.012 128.644 109.379 128.644 111.063Z" fill="white"/>
<rect x="46" y="130" width="83" height="7" fill="#D3E0D7"/>
</svg>