<svg width="200" height="248" viewBox="0 0 200 248" fill="none" xmlns="http://www.w3.org/2000/svg">
<path d="M98.0536 222.282C130.386 222.282 156.597 220.66 156.597 218.658C156.597 216.656 130.386 215.034 98.0536 215.034C65.7213 215.034 39.5107 216.656 39.5107 218.658C39.5107 220.66 65.7213 222.282 98.0536 222.282Z" fill="#D3E0D7"/>
<path d="M72.9538 57.4986C72.9538 57.4986 62.0096 42.2918 51.9917 48.5957C41.9737 54.8997 46.0564 62.1388 39.9324 64.36C33.8083 66.5813 29.177 65.2863 28.6195 71.7791C28.0619 78.2719 20.6429 77.9031 22.8731 86.0596C25.0943 94.216 12.8552 95.6819 23.2418 110.898L72.9538 57.4986Z" fill="#32B768"/>
<path fill-rule="evenodd" clip-rule="evenodd" d="M54.4556 69.855C56.0653 70.5025 57.693 71.9863 59.1948 73.1733C64.0149 76.8693 69.4195 81.6805 73.2594 86.9862C76.317 90.5383 78.4753 93.9286 81.4249 99.0095C82.6839 101.213 83.9878 103.362 85.0669 105.538C89.6712 114.99 92.7647 124.459 95.2467 134.738C95.4985 135.79 95.7593 136.932 95.9932 138.128C96.5417 140.871 97.1083 144.279 96.9104 147.013C96.8205 148.506 96.4428 149.801 96.0022 150.682C95.5615 151.572 95.0309 152.049 94.6802 152.058C94.6082 151.006 94.8151 149.405 94.8421 147.454C94.8781 145.511 94.7162 143.227 94.3205 141.006C92.8997 133.488 90.022 123.074 87.3961 116.123C85.4177 110.763 83.0166 105.484 80.4087 100.61C77.7558 95.6013 74.6713 90.988 71.353 86.6714C68.9339 83.524 66.4969 80.5204 63.7811 77.8226C60.8224 74.9359 57.7379 72.283 54.4556 69.855Z" fill="#1C663A"/>
<path d="M25.0578 127.661C25.0578 127.661 38.484 85.4038 77.1349 69.6665C77.1349 69.6665 80.3004 58.6683 76.2537 52.6072C72.2069 46.5461 61.8383 50.5838 59.1404 58.6683C56.4426 66.7528 56.3617 64.5946 51.6854 66.8877C47.0092 69.1809 48.6279 78.2096 42.0272 77.8049C35.4265 77.4003 29.8959 79.8283 28.6819 85.6197C27.4679 91.411 30.0309 99.4955 26.7935 102.058C23.5651 104.621 16.3169 116.609 25.0578 127.661Z" fill="#278F51"/>
<path d="M148.448 55.8621C148.448 55.8621 158.241 42.391 168.07 44.81C177.9 47.2291 169.275 68.1642 174.266 74.0185C179.257 79.8728 182.729 87.5796 179.86 92.112C176.991 96.6443 174.725 97.2468 174.572 100.125C174.419 102.993 176.236 115.232 165.66 115.844C155.076 116.437 148.448 55.8621 148.448 55.8621Z" fill="#32B768"/>
<path fill-rule="evenodd" clip-rule="evenodd" d="M146.884 73.8115C145.499 74.8007 143.458 75.4212 141.812 76.3205C136.534 79.1442 131.237 83.6946 126.624 87.9841C123.584 91.3384 120.931 94.1352 117.622 98.7485C116.201 100.745 115.014 102.858 113.809 104.846C111.192 109.162 108.917 113.515 106.83 117.966C104.744 122.417 102.802 126.95 101.39 131.779C101.111 132.768 100.805 133.838 100.544 134.953C99.906 137.516 99.5553 140.655 99.4294 143.101C99.2495 145.772 98.9438 147.858 98.2513 148.209C98.0085 147.75 97.8017 147.094 97.6308 146.311C97.5049 145.52 97.3701 144.594 97.3701 143.577C97.3071 141.545 97.5409 139.198 97.9186 136.923C98.5481 133.101 99.879 128.658 101.597 124.45C103.314 120.232 105.266 116.203 106.965 112.921C109.573 107.894 112.496 102.921 115.76 98.4697C119.097 93.9103 122.712 89.6837 126.758 86.0327C129.708 83.3708 132.864 81.1586 136.075 79.1173C137.802 78.0381 139.564 77.0489 141.363 76.1496C143.152 75.2773 144.996 74.495 146.884 73.8115Z" fill="#1C663A"/>
<path d="M153.611 133.56C153.611 133.56 155.401 120.43 149.771 105.241C144.142 90.0525 137.317 76.4015 137.317 63.0922C137.317 49.7829 136.975 39.2074 148.405 41.5905C159.834 43.9826 157.11 60.871 162.739 68.5508C168.369 76.2306 172.802 89.3691 170.761 97.5615C168.71 105.754 168.881 105.241 169.052 114.279C169.223 123.326 153.611 133.56 153.611 133.56Z" fill="#278F51"/>
<path fill-rule="evenodd" clip-rule="evenodd" d="M100.832 65.5203C100.508 66.9951 99.6 68.6228 99.1593 70.2325C97.7025 75.3224 97.8823 81.4914 97.2708 87.0399C97.2438 91.0507 96.8751 94.441 96.6593 99.459C96.5784 101.626 96.6503 103.766 96.6053 105.835C96.3805 114.774 96.3895 123.191 96.9111 132.166C96.9651 133.083 97.019 134.072 97.073 135.097C97.1449 136.275 97.2708 137.57 97.3787 138.847C97.5046 140.124 97.6305 141.383 97.6935 142.489C97.8644 144.917 97.4867 146.815 96.8032 147.121C96.3176 146.32 95.9758 144.89 95.6971 143.155C95.4543 141.419 95.2474 139.396 95.0766 137.417C94.4021 130.736 94.2493 121.419 94.3752 114.945C94.4561 109.98 94.618 104.945 94.9417 100.142C95.2744 95.2144 95.5892 90.4212 96.0388 85.7C96.3715 82.2648 96.8302 78.9285 97.4327 75.6281C98.0802 72.112 99.1053 68.6318 100.832 65.5203Z" fill="#1C663A"/>
<path d="M129.529 65.6196C127.119 71.1411 126.93 69.9271 126.93 74.0188C126.93 78.1105 123.225 82.7238 120.068 85.5116C116.921 88.2903 117.847 104.243 114.691 106.357C111.543 108.47 106.156 101.456 99.1151 96.4558C92.0648 91.4468 95.7788 79.9451 90.9587 76.9774C86.1385 74.0098 82.6134 69.3786 84.8346 58.4344C87.0648 47.4902 72.4066 41.3661 86.5073 31.7259C100.608 22.0856 108.396 37.2924 108.396 37.2924C108.89 31.7618 117.766 24.6935 124.169 26.4291C130.572 28.1647 131.39 34.3248 130.833 37.8499C130.275 41.3751 131.201 41.5549 132.685 46.1952C134.169 50.8265 131.948 60.098 129.529 65.6196Z" fill="#278F51"/>
<path d="M129.529 65.6191C127.118 71.1406 126.93 69.9266 126.93 74.0183C126.93 78.11 123.225 82.7233 120.068 85.5111C116.921 88.2898 117.847 104.243 114.69 106.356C102.307 83.3258 108.387 37.2829 108.387 37.2829C108.881 31.7523 117.757 24.684 124.16 26.4196C130.563 28.1552 131.381 34.3152 130.824 37.8404C130.266 41.3656 131.192 41.5454 132.676 46.1857C134.169 50.826 131.948 60.0975 129.529 65.6191Z" fill="#32B768"/>
<path d="M120.652 217.301H73.782C73.782 217.301 53.6022 204.945 57.1813 182.157C58.2874 175.116 59.8881 168.542 61.5788 162.823C64.6003 152.589 67.8827 145.071 69.0787 142.463C69.3575 141.852 69.969 141.465 70.6435 141.465H123.8C124.474 141.465 125.077 141.852 125.364 142.463C126.561 145.071 129.852 152.589 132.864 162.823C134.555 168.542 136.156 175.116 137.262 182.157C140.841 204.945 120.652 217.301 120.652 217.301Z" fill="white"/>
<path d="M132.864 162.822C127.522 162.076 127.28 153.146 121.47 153.146C115.409 153.146 115.409 162.876 109.348 162.876C103.287 162.876 103.287 153.146 97.2257 153.146C91.1646 153.146 91.1646 162.876 85.1035 162.876C79.0424 162.876 79.0423 153.146 72.9812 153.146C67.1719 153.146 66.9291 162.076 61.5874 162.822C64.609 152.588 67.8913 145.07 69.0874 142.462C69.3661 141.851 69.9776 141.464 70.6521 141.464H123.808C124.483 141.464 125.085 141.851 125.373 142.462C126.56 145.07 129.842 152.588 132.864 162.822Z" fill="#AFE1C4"/>
</svg>